<svg width="186" height="36" viewBox="0 0 186 36" fill="none" xmlns="http://www.w3.org/2000/svg">
<g clip-path="url(#clip0_2680_172)">
<path d="M14.3667 24.22C14.3667 22.8843 15.4446 21.8015 16.7743 21.8015C18.104 21.8015 19.182 22.8843 19.182 24.22C19.182 25.5557 18.104 26.6385 16.7743 26.6385C15.4446 26.6385 14.3667 25.5557 14.3667 24.22Z" fill="url(#paint0_linear_2680_172)"/>
<path d="M17.7781 9.78335C18.8629 10.5558 19.1189 12.0654 18.3499 13.155L9.61318 25.5342C8.84419 26.6239 7.34137 26.8809 6.25658 26.1084C5.17184 25.3359 4.91588 23.8264 5.68492 22.7367L14.4215 10.3576C15.1905 9.26796 16.6934 9.01085 17.7781 9.78335Z" fill="url(#paint1_linear_2680_172)"/>
<path d="M9.14658 9.89311C10.2376 10.6567 10.5058 12.1641 9.74565 13.26L5.00197 20.099C4.24182 21.195 2.74116 21.4644 1.65015 20.7008C0.559131 19.9372 0.290921 18.4298 1.05107 17.3339L5.79474 10.4949C6.55488 9.39895 8.05553 9.12953 9.14658 9.89311Z" fill="url(#paint2_linear_2680_172)"/>
</g>
<path d="M172.164 14.022C173.205 14.022 174.096 14.2992 174.835 14.8536C175.574 15.3912 176.078 16.1976 176.347 17.2728L175.994 17.3736L176.145 16.92C176.364 16.416 176.725 15.9456 177.229 15.5088C177.75 15.0552 178.338 14.694 178.993 14.4252C179.648 14.1564 180.312 14.022 180.984 14.022C182.042 14.022 182.89 14.2488 183.529 14.7024C184.184 15.156 184.654 15.7692 184.94 16.542C185.242 17.298 185.394 18.1548 185.394 19.1124V26.244C185.394 26.4456 185.318 26.622 185.167 26.7732C185.032 26.9244 184.856 27 184.638 27C184.419 27 184.234 26.9244 184.083 26.7732C183.949 26.622 183.882 26.4456 183.882 26.244V19.188C183.882 18.4992 183.772 17.8692 183.554 17.298C183.336 16.7268 182.991 16.2732 182.521 15.9372C182.05 15.6012 181.42 15.4332 180.631 15.4332C179.942 15.4332 179.278 15.6012 178.64 15.9372C178.018 16.2732 177.506 16.7268 177.103 17.298C176.716 17.8692 176.523 18.4992 176.523 19.188V26.244C176.523 26.4456 176.448 26.622 176.296 26.7732C176.162 26.9244 175.986 27 175.767 27C175.549 27 175.364 26.9244 175.213 26.7732C175.078 26.622 175.011 26.4456 175.011 26.244V19.1124C175.011 18.4236 174.91 17.802 174.709 17.2476C174.507 16.6932 174.18 16.2564 173.726 15.9372C173.272 15.6012 172.659 15.4332 171.886 15.4332C171.198 15.4332 170.542 15.6012 169.921 15.9372C169.316 16.2564 168.82 16.6932 168.434 17.2476C168.064 17.802 167.88 18.4236 167.88 19.1124V26.244C167.88 26.4456 167.804 26.622 167.653 26.7732C167.502 26.9244 167.325 27 167.124 27C166.888 27 166.704 26.9244 166.569 26.7732C166.435 26.622 166.368 26.4456 166.368 26.244V14.9544C166.368 14.7528 166.435 14.5764 166.569 14.4252C166.72 14.274 166.905 14.1984 167.124 14.1984C167.342 14.1984 167.518 14.274 167.653 14.4252C167.804 14.5764 167.88 14.7528 167.88 14.9544V17.298L167.199 18.2304C167.25 17.7264 167.409 17.2224 167.678 16.7184C167.964 16.2144 168.333 15.7608 168.787 15.3576C169.24 14.9544 169.753 14.6352 170.324 14.4C170.912 14.148 171.525 14.022 172.164 14.022Z" fill="#94C1B1"/>
<path d="M164.666 20.5487C164.666 21.8255 164.389 22.9763 163.835 24.0011C163.28 25.0091 162.524 25.8071 161.567 26.3951C160.609 26.9663 159.517 27.2519 158.291 27.2519C157.098 27.2519 156.014 26.9663 155.04 26.3951C154.082 25.8071 153.318 25.0091 152.747 24.0011C152.192 22.9763 151.915 21.8255 151.915 20.5487C151.915 19.2551 152.192 18.1043 152.747 17.0963C153.318 16.0883 154.082 15.2903 155.04 14.7023C156.014 14.1143 157.098 13.8203 158.291 13.8203C159.517 13.8203 160.609 14.1143 161.567 14.7023C162.524 15.2903 163.28 16.0883 163.835 17.0963C164.389 18.1043 164.666 19.2551 164.666 20.5487ZM163.154 20.5487C163.154 19.5239 162.944 18.6167 162.524 17.8271C162.104 17.0207 161.525 16.3907 160.785 15.9371C160.063 15.4667 159.231 15.2315 158.291 15.2315C157.383 15.2315 156.56 15.4667 155.821 15.9371C155.082 16.3907 154.494 17.0207 154.057 17.8271C153.637 18.6167 153.427 19.5239 153.427 20.5487C153.427 21.5735 153.637 22.4807 154.057 23.2703C154.494 24.0599 155.082 24.6899 155.821 25.1603C156.56 25.6139 157.383 25.8407 158.291 25.8407C159.231 25.8407 160.063 25.6139 160.785 25.1603C161.525 24.6899 162.104 24.0599 162.524 23.2703C162.944 22.4807 163.154 21.5735 163.154 20.5487Z" fill="#94C1B1"/>
<path d="M146.81 13.8203C147.617 13.8203 148.356 13.9127 149.028 14.0975C149.7 14.2655 150.237 14.5007 150.641 14.8031C151.061 15.1055 151.271 15.4331 151.271 15.7859C151.271 15.9539 151.212 16.1219 151.094 16.2899C150.977 16.4411 150.817 16.5167 150.615 16.5167C150.414 16.5167 150.246 16.4663 150.111 16.3655C149.994 16.2647 149.868 16.1471 149.733 16.0127C149.616 15.8783 149.439 15.7523 149.204 15.6347C148.986 15.5339 148.675 15.4415 148.272 15.3575C147.869 15.2735 147.407 15.2315 146.886 15.2315C145.945 15.2315 145.097 15.4667 144.341 15.9371C143.585 16.4075 142.988 17.0459 142.551 17.8523C142.115 18.6419 141.896 19.5323 141.896 20.5235C141.896 21.5315 142.106 22.4387 142.526 23.2451C142.946 24.0515 143.526 24.6899 144.265 25.1603C145.004 25.6139 145.869 25.8407 146.861 25.8407C147.533 25.8407 148.053 25.7819 148.423 25.6643C148.793 25.5467 149.112 25.4123 149.381 25.2611C149.7 25.0763 149.927 24.8999 150.061 24.7319C150.212 24.5471 150.405 24.4547 150.641 24.4547C150.859 24.4547 151.019 24.5219 151.119 24.6563C151.237 24.7739 151.296 24.9335 151.296 25.1351C151.296 25.4039 151.094 25.7063 150.691 26.0423C150.305 26.3615 149.767 26.6471 149.078 26.8991C148.389 27.1343 147.6 27.2519 146.709 27.2519C145.449 27.2519 144.341 26.9579 143.383 26.3699C142.442 25.7819 141.703 24.9839 141.165 23.9759C140.645 22.9511 140.384 21.8003 140.384 20.5235C140.384 19.2971 140.653 18.1799 141.191 17.1719C141.728 16.1639 142.476 15.3575 143.433 14.7527C144.408 14.1311 145.533 13.8203 146.81 13.8203Z" fill="#94C1B1"/>
<path d="M138.301 27.0001C138.015 27.0001 137.797 26.9077 137.646 26.7229C137.495 26.5381 137.419 26.3029 137.419 26.0173V25.4881C137.419 25.1857 137.495 24.9505 137.646 24.7825C137.797 24.6145 138.015 24.5305 138.301 24.5305H138.477C138.763 24.5305 138.981 24.6145 139.133 24.7825C139.284 24.9505 139.359 25.1857 139.359 25.4881V26.0173C139.359 26.3029 139.284 26.5381 139.133 26.7229C138.981 26.9077 138.763 27.0001 138.477 27.0001H138.301Z" fill="#94C1B1"/>
<path d="M134.594 13.5432C134.964 13.5432 135.266 13.6692 135.502 13.9212C135.737 14.1564 135.854 14.4588 135.854 14.8284V25.7148C135.854 26.0844 135.737 26.3952 135.502 26.6472C135.266 26.8824 134.964 27 134.594 27C134.242 27 133.939 26.8824 133.687 26.6472C133.452 26.3952 133.334 26.0844 133.334 25.7148V23.9004L133.864 23.976C133.864 24.2784 133.738 24.6144 133.486 24.984C133.25 25.3536 132.923 25.7148 132.503 26.0676C132.083 26.4036 131.587 26.6892 131.016 26.9244C130.445 27.1428 129.832 27.252 129.176 27.252C128.017 27.252 126.976 26.958 126.052 26.37C125.128 25.7652 124.397 24.942 123.859 23.9004C123.322 22.8588 123.053 21.6744 123.053 20.3472C123.053 18.9864 123.322 17.7936 123.859 16.7688C124.397 15.7272 125.119 14.9124 126.026 14.3244C126.95 13.7364 127.975 13.4424 129.101 13.4424C129.823 13.4424 130.487 13.56 131.092 13.7952C131.713 14.0304 132.251 14.3328 132.704 14.7024C133.158 15.072 133.502 15.4668 133.738 15.8868C133.99 16.29 134.116 16.6764 134.116 17.046L133.334 17.1216V14.8284C133.334 14.4756 133.452 14.1732 133.687 13.9212C133.939 13.6692 134.242 13.5432 134.594 13.5432ZM129.454 24.9336C130.243 24.9336 130.94 24.732 131.545 24.3288C132.15 23.9256 132.62 23.3796 132.956 22.6908C133.292 21.9852 133.46 21.204 133.46 20.3472C133.46 19.4736 133.292 18.6924 132.956 18.0036C132.62 17.3148 132.15 16.7688 131.545 16.3656C130.94 15.9624 130.243 15.7608 129.454 15.7608C128.681 15.7608 127.992 15.9624 127.387 16.3656C126.799 16.7688 126.329 17.3148 125.976 18.0036C125.64 18.6924 125.472 19.4736 125.472 20.3472C125.472 21.204 125.64 21.9852 125.976 22.6908C126.329 23.3796 126.799 23.9256 127.387 24.3288C127.992 24.732 128.681 24.9336 129.454 24.9336Z" fill="url(#paint3_linear_2680_172)"/>
<path d="M121.855 25.7148C121.855 26.0844 121.738 26.3952 121.502 26.6472C121.267 26.8824 120.965 27 120.595 27C120.242 27 119.94 26.8824 119.688 26.6472C119.453 26.3952 119.335 26.0844 119.335 25.7148V14.9292C119.335 14.5596 119.453 14.2572 119.688 14.022C119.94 13.77 120.242 13.644 120.595 13.644C120.965 13.644 121.267 13.77 121.502 14.022C121.738 14.2572 121.855 14.5596 121.855 14.9292V25.7148ZM120.57 11.9808C120.083 11.9808 119.73 11.8968 119.512 11.7288C119.293 11.544 119.184 11.2416 119.184 10.8216V10.4184C119.184 9.99842 119.302 9.70442 119.537 9.53642C119.772 9.36842 120.125 9.28442 120.595 9.28442C121.099 9.28442 121.46 9.37682 121.679 9.56162C121.897 9.72962 122.006 10.0152 122.006 10.4184V10.8216C122.006 11.2584 121.889 11.5608 121.654 11.7288C121.435 11.8968 121.074 11.9808 120.57 11.9808Z" fill="url(#paint4_linear_2680_172)"/>
<path d="M108.183 24.9336C108.032 24.6984 107.965 24.4296 107.982 24.1272C107.998 23.808 108.175 23.5392 108.511 23.3208C108.746 23.1696 108.99 23.1108 109.242 23.1444C109.51 23.1612 109.762 23.2872 109.998 23.5224C110.468 24.0432 110.989 24.4548 111.56 24.7572C112.148 25.0596 112.854 25.2108 113.677 25.2108C114.013 25.194 114.357 25.1436 114.71 25.0596C115.063 24.9588 115.365 24.7908 115.617 24.5556C115.869 24.3036 115.995 23.9424 115.995 23.472C115.995 23.052 115.861 22.716 115.592 22.464C115.323 22.212 114.97 22.0104 114.534 21.8592C114.097 21.6912 113.626 21.54 113.122 21.4056C112.585 21.2544 112.039 21.0864 111.484 20.9016C110.947 20.7168 110.46 20.4816 110.023 20.196C109.586 19.8936 109.225 19.5072 108.939 19.0368C108.67 18.5664 108.536 17.9868 108.536 17.298C108.536 16.5084 108.754 15.828 109.191 15.2568C109.645 14.6856 110.224 14.2404 110.93 13.9212C111.652 13.602 112.434 13.4424 113.274 13.4424C113.761 13.4424 114.273 13.5096 114.811 13.644C115.348 13.7616 115.869 13.9548 116.373 14.2236C116.877 14.4924 117.314 14.8452 117.684 15.282C117.852 15.5004 117.944 15.7608 117.961 16.0632C117.994 16.3656 117.86 16.6344 117.558 16.8696C117.356 17.0376 117.112 17.1132 116.827 17.0964C116.541 17.0796 116.306 16.9872 116.121 16.8192C115.802 16.416 115.39 16.1052 114.886 15.8868C114.382 15.6516 113.811 15.534 113.173 15.534C112.854 15.534 112.518 15.5844 112.165 15.6852C111.829 15.7692 111.543 15.9288 111.308 16.164C111.073 16.3992 110.955 16.7436 110.955 17.1972C110.955 17.6172 111.09 17.9532 111.358 18.2052C111.644 18.4572 112.014 18.6672 112.467 18.8352C112.921 19.0032 113.416 19.1544 113.954 19.2888C114.475 19.4232 114.987 19.5828 115.491 19.7676C116.012 19.9524 116.474 20.196 116.877 20.4984C117.297 20.784 117.633 21.162 117.885 21.6324C118.154 22.086 118.288 22.6656 118.288 23.3712C118.288 24.1944 118.045 24.9 117.558 25.488C117.087 26.0592 116.482 26.496 115.743 26.7984C115.021 27.1008 114.256 27.252 113.45 27.252C112.492 27.252 111.535 27.084 110.577 26.748C109.636 26.3952 108.838 25.7904 108.183 24.9336Z" fill="url(#paint5_linear_2680_172)"/>
<path d="M101.983 27.252C100.589 27.252 99.3793 26.9664 98.3545 26.3952C97.3297 25.8072 96.5317 25.0092 95.9605 24.0012C95.4061 22.9764 95.1289 21.8088 95.1289 20.4984C95.1289 19.02 95.4229 17.76 96.0109 16.7184C96.6157 15.66 97.3969 14.8536 98.3545 14.2992C99.3121 13.728 100.329 13.4424 101.404 13.4424C102.227 13.4424 103.008 13.6104 103.747 13.9464C104.487 14.2656 105.142 14.7192 105.713 15.3072C106.301 15.8784 106.763 16.5588 107.099 17.3484C107.435 18.1212 107.611 18.9696 107.628 19.8936C107.611 20.2296 107.477 20.5068 107.225 20.7252C106.973 20.9436 106.679 21.0528 106.343 21.0528H96.5401L95.9353 18.9108H105.411L104.932 19.3644V18.7344C104.898 18.1464 104.705 17.634 104.352 17.1972C103.999 16.7436 103.563 16.3992 103.042 16.164C102.521 15.912 101.975 15.786 101.404 15.786C100.9 15.786 100.413 15.87 99.9421 16.038C99.4885 16.1892 99.0769 16.4412 98.7073 16.794C98.3545 17.1468 98.0689 17.6172 97.8505 18.2052C97.6489 18.7764 97.5481 19.4904 97.5481 20.3472C97.5481 21.2712 97.7413 22.0776 98.1277 22.7664C98.5141 23.4552 99.0349 23.9928 99.6901 24.3792C100.345 24.7488 101.068 24.9336 101.857 24.9336C102.479 24.9336 102.991 24.8748 103.395 24.7572C103.798 24.6228 104.134 24.4632 104.403 24.2784C104.671 24.0936 104.907 23.9172 105.108 23.7492C105.36 23.598 105.612 23.5224 105.864 23.5224C106.167 23.5224 106.419 23.6316 106.62 23.85C106.822 24.0516 106.923 24.2952 106.923 24.5808C106.923 24.9504 106.738 25.2864 106.368 25.5888C105.915 26.0256 105.285 26.412 104.478 26.748C103.689 27.084 102.857 27.252 101.983 27.252Z" fill="url(#paint6_linear_2680_172)"/>
<path d="M89.2862 13.4424C90.479 13.4424 91.403 13.6944 92.0582 14.1984C92.7134 14.6856 93.167 15.3492 93.419 16.1892C93.6878 17.0124 93.8222 17.9364 93.8222 18.9612V25.7148C93.8222 26.0844 93.6962 26.3952 93.4442 26.6472C93.209 26.8824 92.915 27 92.5622 27C92.1926 27 91.8902 26.8824 91.655 26.6472C91.4198 26.3952 91.3022 26.0844 91.3022 25.7148V18.9864C91.3022 18.3816 91.2182 17.844 91.0502 17.3736C90.8822 16.8864 90.5882 16.5 90.1682 16.2144C89.765 15.912 89.1938 15.7608 88.4546 15.7608C87.7658 15.7608 87.161 15.912 86.6402 16.2144C86.1194 16.5 85.7078 16.8864 85.4054 17.3736C85.1198 17.844 84.977 18.3816 84.977 18.9864V25.7148C84.977 26.0844 84.851 26.3952 84.599 26.6472C84.3638 26.8824 84.0698 27 83.717 27C83.3474 27 83.045 26.8824 82.8098 26.6472C82.5746 26.3952 82.457 26.0844 82.457 25.7148V15.03C82.457 14.6604 82.5746 14.358 82.8098 14.1228C83.045 13.8708 83.3474 13.7448 83.717 13.7448C84.0698 13.7448 84.3638 13.8708 84.599 14.1228C84.851 14.358 84.977 14.6604 84.977 15.03V16.4412L84.5234 16.6932C84.641 16.3236 84.8426 15.954 85.1282 15.5844C85.4306 15.198 85.7918 14.8452 86.2118 14.526C86.6318 14.19 87.1022 13.9296 87.623 13.7448C88.1438 13.5432 88.6982 13.4424 89.2862 13.4424Z" fill="url(#paint7_linear_2680_172)"/>
<path d="M80.2182 25.7149C80.2182 26.0845 80.0922 26.3952 79.8402 26.6472C79.605 26.8824 79.311 27.0001 78.9582 27.0001C78.6054 27.0001 78.303 26.8824 78.051 26.6472C77.8158 26.3952 77.6982 26.0845 77.6982 25.7149V9.63725C77.6982 9.26765 77.8242 8.96525 78.0762 8.73005C78.3282 8.47805 78.6306 8.35205 78.9834 8.35205C79.353 8.35205 79.647 8.47805 79.8654 8.73005C80.1006 8.96525 80.2182 9.26765 80.2182 9.63725V25.7149Z" fill="url(#paint8_linear_2680_172)"/>
<path d="M74.2188 13.5432C74.5884 13.5432 74.8908 13.6692 75.126 13.9212C75.3612 14.1564 75.4788 14.4588 75.4788 14.8284V25.7148C75.4788 26.0844 75.3612 26.3952 75.126 26.6472C74.8908 26.8824 74.5884 27 74.2188 27C73.866 27 73.5636 26.8824 73.3116 26.6472C73.0764 26.3952 72.9588 26.0844 72.9588 25.7148V23.9004L73.488 23.976C73.488 24.2784 73.362 24.6144 73.11 24.984C72.8748 25.3536 72.5472 25.7148 72.1272 26.0676C71.7072 26.4036 71.2116 26.6892 70.6404 26.9244C70.0692 27.1428 69.456 27.252 68.8008 27.252C67.6416 27.252 66.6 26.958 65.676 26.37C64.752 25.7652 64.0212 24.942 63.4836 23.9004C62.946 22.8588 62.6772 21.6744 62.6772 20.3472C62.6772 18.9864 62.946 17.7936 63.4836 16.7688C64.0212 15.7272 64.7436 14.9124 65.6508 14.3244C66.5748 13.7364 67.5996 13.4424 68.7252 13.4424C69.4476 13.4424 70.1112 13.56 70.716 13.7952C71.3376 14.0304 71.8752 14.3328 72.3288 14.7024C72.7824 15.072 73.1268 15.4668 73.362 15.8868C73.614 16.29 73.74 16.6764 73.74 17.046L72.9588 17.1216V14.8284C72.9588 14.4756 73.0764 14.1732 73.3116 13.9212C73.5636 13.6692 73.866 13.5432 74.2188 13.5432ZM69.078 24.9336C69.8676 24.9336 70.5648 24.732 71.1696 24.3288C71.7744 23.9256 72.2448 23.3796 72.5808 22.6908C72.9168 21.9852 73.0848 21.204 73.0848 20.3472C73.0848 19.4736 72.9168 18.6924 72.5808 18.0036C72.2448 17.3148 71.7744 16.7688 71.1696 16.3656C70.5648 15.9624 69.8676 15.7608 69.078 15.7608C68.3052 15.7608 67.6164 15.9624 67.0116 16.3656C66.4236 16.7688 65.9532 17.3148 65.6004 18.0036C65.2644 18.6924 65.0964 19.4736 65.0964 20.3472C65.0964 21.204 65.2644 21.9852 65.6004 22.6908C65.9532 23.3796 66.4236 23.9256 67.0116 24.3288C67.6164 24.732 68.3052 24.9336 69.078 24.9336Z" fill="url(#paint9_linear_2680_172)"/>
<path d="M56.2777 27.252C54.8833 27.252 53.6737 26.9664 52.6489 26.3952C51.6241 25.8072 50.8261 25.0092 50.2549 24.0012C49.7005 22.9764 49.4233 21.8088 49.4233 20.4984C49.4233 19.02 49.7173 17.76 50.3053 16.7184C50.9101 15.66 51.6913 14.8536 52.6489 14.2992C53.6065 13.728 54.6229 13.4424 55.6981 13.4424C56.5213 13.4424 57.3025 13.6104 58.0417 13.9464C58.7809 14.2656 59.4361 14.7192 60.0073 15.3072C60.5953 15.8784 61.0573 16.5588 61.3933 17.3484C61.7293 18.1212 61.9057 18.9696 61.9225 19.8936C61.9057 20.2296 61.7713 20.5068 61.5193 20.7252C61.2673 20.9436 60.9733 21.0528 60.6373 21.0528H50.8345L50.2297 18.9108H59.7049L59.2261 19.3644V18.7344C59.1925 18.1464 58.9993 17.634 58.6465 17.1972C58.2937 16.7436 57.8569 16.3992 57.3361 16.164C56.8153 15.912 56.2693 15.786 55.6981 15.786C55.1941 15.786 54.7069 15.87 54.2365 16.038C53.7829 16.1892 53.3713 16.4412 53.0017 16.794C52.6489 17.1468 52.3633 17.6172 52.1449 18.2052C51.9433 18.7764 51.8425 19.4904 51.8425 20.3472C51.8425 21.2712 52.0357 22.0776 52.4221 22.7664C52.8085 23.4552 53.3293 23.9928 53.9845 24.3792C54.6397 24.7488 55.3621 24.9336 56.1517 24.9336C56.7733 24.9336 57.2857 24.8748 57.6889 24.7572C58.0921 24.6228 58.4281 24.4632 58.6969 24.2784C58.9657 24.0936 59.2009 23.9172 59.4025 23.7492C59.6545 23.598 59.9065 23.5224 60.1585 23.5224C60.4609 23.5224 60.7129 23.6316 60.9145 23.85C61.1161 24.0516 61.2169 24.2952 61.2169 24.5808C61.2169 24.9504 61.0321 25.2864 60.6625 25.5888C60.2089 26.0256 59.5789 26.412 58.7725 26.748C57.9829 27.084 57.1513 27.252 56.2777 27.252Z" fill="url(#paint10_linear_2680_172)"/>
<path d="M46.8253 8.35205C47.1949 8.35205 47.4973 8.46965 47.7325 8.70485C47.9677 8.94005 48.0853 9.25085 48.0853 9.63725V25.7149C48.0853 26.0845 47.9677 26.3952 47.7325 26.6472C47.4973 26.8824 47.1949 27.0001 46.8253 27.0001C46.4725 27.0001 46.1701 26.8824 45.9181 26.6472C45.6829 26.3952 45.5653 26.0845 45.5653 25.7149V23.9005L46.0945 23.9257C46.0945 24.2281 45.9685 24.5725 45.7165 24.9589C45.4813 25.3284 45.1537 25.6897 44.7337 26.0425C44.3137 26.3953 43.8181 26.6893 43.2469 26.9245C42.6757 27.1429 42.0625 27.2521 41.4073 27.2521C40.2481 27.2521 39.2065 26.9581 38.2825 26.3701C37.3585 25.7653 36.6277 24.9505 36.0901 23.9257C35.5525 22.8841 35.2837 21.6913 35.2837 20.3473C35.2837 19.0033 35.5525 17.8189 36.0901 16.7941C36.6277 15.7525 37.3501 14.9377 38.2573 14.3497C39.1813 13.7449 40.2061 13.4424 41.3317 13.4424C42.0373 13.4424 42.6925 13.5601 43.2973 13.7953C43.9189 14.0305 44.4565 14.3328 44.9101 14.7024C45.3637 15.072 45.7165 15.4669 45.9685 15.8869C46.2205 16.2901 46.3465 16.6765 46.3465 17.0461L45.5653 17.1217V9.63725C45.5653 9.26765 45.6829 8.96525 45.9181 8.73005C46.1701 8.47805 46.4725 8.35205 46.8253 8.35205ZM41.6845 24.9337C42.4909 24.9337 43.1881 24.732 43.7761 24.3288C44.3809 23.9256 44.8513 23.3797 45.1873 22.6909C45.5233 22.0021 45.6913 21.2209 45.6913 20.3473C45.6913 19.4737 45.5233 18.6925 45.1873 18.0037C44.8513 17.3149 44.3809 16.7689 43.7761 16.3657C43.1713 15.9625 42.4741 15.7609 41.6845 15.7609C40.9117 15.7609 40.2229 15.9625 39.6181 16.3657C39.0301 16.7689 38.5597 17.3149 38.2069 18.0037C37.8709 18.6925 37.7029 19.4737 37.7029 20.3473C37.7029 21.2209 37.8709 22.0021 38.2069 22.6909C38.5597 23.3797 39.0301 23.9256 39.6181 24.3288C40.2229 24.732 40.9117 24.9337 41.6845 24.9337Z" fill="url(#paint11_linear_2680_172)"/>
<line x1="27.5" y1="2.18557e-08" x2="27.5" y2="36" stroke="#448C74"/>
<defs>
<linearGradient id="paint0_linear_2680_172" x1="18.3454" y1="26.6385" x2="14.4257" y2="25.755" gradientUnits="userSpaceOnUse">
<stop offset="0.469591" stop-color="#438C74"/>
<stop offset="1" stop-color="#1E5744"/>
</linearGradient>
<linearGradient id="paint1_linear_2680_172" x1="17.7405" y1="14.0184" x2="5.55131" y2="16.4955" gradientUnits="userSpaceOnUse">
<stop offset="0.469591" stop-color="#438C74"/>
<stop offset="1" stop-color="#1E5744"/>
</linearGradient>
<linearGradient id="paint2_linear_2680_172" x1="9.81953" y1="13.1535" x2="1.04998" y2="16.9452" gradientUnits="userSpaceOnUse">
<stop offset="0.469591" stop-color="#438C74"/>
<stop offset="1" stop-color="#1E5744"/>
</linearGradient>
<linearGradient id="paint3_linear_2680_172" x1="136.35" y1="-1.35002" x2="116.132" y2="58.9501" gradientUnits="userSpaceOnUse">
<stop offset="0.469591" stop-color="#448C74"/>
<stop offset="1" stop-color="#1B5340"/>
</linearGradient>
<linearGradient id="paint4_linear_2680_172" x1="136.35" y1="-1.34998" x2="116.132" y2="58.9501" gradientUnits="userSpaceOnUse">
<stop offset="0.469591" stop-color="#448C74"/>
<stop offset="1" stop-color="#1B5340"/>
</linearGradient>
<linearGradient id="paint5_linear_2680_172" x1="136.35" y1="-1.35002" x2="116.132" y2="58.9501" gradientUnits="userSpaceOnUse">
<stop offset="0.469591" stop-color="#448C74"/>
<stop offset="1" stop-color="#1B5340"/>
</linearGradient>
<linearGradient id="paint6_linear_2680_172" x1="136.35" y1="-1.35002" x2="116.132" y2="58.9501" gradientUnits="userSpaceOnUse">
<stop offset="0.469591" stop-color="#448C74"/>
<stop offset="1" stop-color="#1B5340"/>
</linearGradient>
<linearGradient id="paint7_linear_2680_172" x1="136.35" y1="-1.35002" x2="116.132" y2="58.9501" gradientUnits="userSpaceOnUse">
<stop offset="0.469591" stop-color="#448C74"/>
<stop offset="1" stop-color="#1B5340"/>
</linearGradient>
<linearGradient id="paint8_linear_2680_172" x1="136.35" y1="-1.34995" x2="116.132" y2="58.9501" gradientUnits="userSpaceOnUse">
<stop offset="0.469591" stop-color="#448C74"/>
<stop offset="1" stop-color="#1B5340"/>
</linearGradient>
<linearGradient id="paint9_linear_2680_172" x1="136.35" y1="-1.35002" x2="116.132" y2="58.9501" gradientUnits="userSpaceOnUse">
<stop offset="0.469591" stop-color="#448C74"/>
<stop offset="1" stop-color="#1B5340"/>
</linearGradient>
<linearGradient id="paint10_linear_2680_172" x1="136.35" y1="-1.35002" x2="116.132" y2="58.9501" gradientUnits="userSpaceOnUse">
<stop offset="0.469591" stop-color="#448C74"/>
<stop offset="1" stop-color="#1B5340"/>
</linearGradient>
<linearGradient id="paint11_linear_2680_172" x1="136.35" y1="-1.34995" x2="116.132" y2="58.9501" gradientUnits="userSpaceOnUse">
<stop offset="0.469591" stop-color="#448C74"/>
<stop offset="1" stop-color="#1B5340"/>
</linearGradient>
<clipPath id="clip0_2680_172">
<rect width="19.8" height="19.8" fill="white" transform="translate(0 8.1001)"/>
</clipPath>
</defs>
</svg>
