<svg width="20" height="20" viewBox="0 0 20 20" fill="none" xmlns="http://www.w3.org/2000/svg">
<path d="M5.27086 10.652H7.46316V19.6774C7.46316 19.8557 7.60756 20 7.78576 20H11.5029C11.6811 20 11.8255 19.8557 11.8255 19.6774V10.6945H14.3458C14.5096 10.6945 14.6475 10.5716 14.6662 10.4088L15.049 7.0861C15.0595 6.9947 15.0306 6.90315 14.9694 6.83455C14.9082 6.7659 14.8206 6.7266 14.7286 6.7266H11.8256V4.64375C11.8256 4.0159 12.1637 3.6975 12.8306 3.6975C12.9256 3.6975 14.7286 3.6975 14.7286 3.6975C14.9068 3.6975 15.0512 3.55304 15.0512 3.37492V0.324961C15.0512 0.146758 14.9068 0.00238281 14.7286 0.00238281H12.1128C12.0944 0.00148437 12.0534 0 11.993 0C11.5391 0 9.96151 0.0891016 8.71526 1.23555C7.33451 2.50602 7.52646 4.02715 7.57231 4.2909V6.7265H5.27081C5.09261 6.7265 4.94824 6.8709 4.94824 7.0491V10.3294C4.94828 10.5076 5.09266 10.652 5.27086 10.652Z" fill="url(#paint0_linear_2007_579)"/>
<defs>
<linearGradient id="paint0_linear_2007_579" x1="9.99971" y1="0" x2="9.99971" y2="20" gradientUnits="userSpaceOnUse">
<stop stop-color="#4080D9"/>
<stop offset="1" stop-color="#385C8E"/>
</linearGradient>
</defs>
</svg>
