<svg width="20" height="20" viewBox="0 0 20 20" fill="none" xmlns="http://www.w3.org/2000/svg">
<path fill-rule="evenodd" clip-rule="evenodd" d="M7.74076 3C8.01018 3 8.22859 3.21841 8.22859 3.48783V5.43916C8.22859 5.70858 8.01018 5.92699 7.74076 5.92699C7.47134 5.92699 7.25293 5.70858 7.25293 5.43916V3.48783C7.25293 3.21841 7.47134 3 7.74076 3Z" fill="#888888"/>
<path fill-rule="evenodd" clip-rule="evenodd" d="M12.9429 3C13.2123 3 13.4307 3.21841 13.4307 3.48783V5.43916C13.4307 5.70858 13.2123 5.92699 12.9429 5.92699C12.6735 5.92699 12.4551 5.70858 12.4551 5.43916V3.48783C12.4551 3.21841 12.6735 3 12.9429 3Z" fill="#888888"/>
<path fill-rule="evenodd" clip-rule="evenodd" d="M7.71226 3.97638C7.72151 3.97585 7.73078 3.97559 7.74004 3.97559H12.9436C12.9524 3.97559 12.9611 3.97582 12.9699 3.9763C14.0938 4.03704 15.0709 4.28535 15.7447 5.0349C16.4099 5.77485 16.6836 6.89831 16.6836 8.46364V12.4834C16.6836 13.8303 16.5286 14.9985 15.8358 15.814C15.1254 16.6503 13.9648 16.9909 12.2931 16.9909H8.39049C6.71882 16.9909 5.5582 16.6503 4.84779 15.814C4.15498 14.9985 4 13.8303 4 12.4834V8.46364C4 6.89828 4.27375 5.77628 4.93912 5.0371C5.61269 4.2888 6.58947 4.04044 7.71226 3.97638ZM7.75414 4.95125C6.71896 5.01194 6.07351 5.2352 5.66428 5.68984C5.24503 6.1556 4.97566 6.97192 4.97566 8.46364V12.4834C4.97566 13.8163 5.14591 14.658 5.59137 15.1823C6.01923 15.686 6.80994 16.0153 8.39049 16.0153H12.2931C13.8737 16.0153 14.6644 15.686 15.0923 15.1823C15.5377 14.658 15.708 13.8163 15.708 12.4834V8.46364C15.708 6.97188 15.4386 6.15377 15.0191 5.68715C14.61 5.23204 13.9648 5.00873 12.9302 4.95125H7.75414Z" fill="#888888"/>
<path fill-rule="evenodd" clip-rule="evenodd" d="M4.16211 13.6343C4.16211 13.3649 4.38052 13.1465 4.64994 13.1465H16.0327C16.3021 13.1465 16.5205 13.3649 16.5205 13.6343C16.5205 13.9037 16.3021 14.1221 16.0327 14.1221H4.64994C4.38052 14.1221 4.16211 13.9037 4.16211 13.6343Z" fill="#888888"/>
</svg>
