<svg width="20" height="20" viewBox="0 0 20 20" fill="none" xmlns="http://www.w3.org/2000/svg">
<path d="M13.3333 18.3337V6.66699C13.3333 4.30997 13.3333 3.13146 12.6011 2.39923C11.8688 1.66699 10.6903 1.66699 8.33333 1.66699H7.5C5.14297 1.66699 3.96447 1.66699 3.23223 2.39923C2.5 3.13146 2.5 4.30997 2.5 6.66699V18.3337" stroke="#999999" stroke-width="1.3"/>
<path d="M9.16667 5H6.66667C5.88099 5 5.48816 5 5.24408 5.24408C5 5.48816 5 5.88099 5 6.66667C5 7.45234 5 7.84518 5.24408 8.08926C5.48816 8.33333 5.88099 8.33333 6.66667 8.33333H9.16667C9.95233 8.33333 10.3452 8.33333 10.5892 8.08926C10.8333 7.84518 10.8333 7.45234 10.8333 6.66667C10.8333 5.88099 10.8333 5.48816 10.5892 5.24408C10.3452 5 9.95233 5 9.16667 5Z" stroke="#999999" stroke-width="1.3"/>
<path d="M5.83301 14.167H9.99967" stroke="#999999" stroke-width="1.3" stroke-linecap="round"/>
<path d="M14.167 18.333H1.66699" stroke="#999999" stroke-width="1.3" stroke-linecap="round"/>
<path d="M16.2497 3.33301L17.2773 4.15507C17.3921 4.24695 17.4495 4.29289 17.5018 4.33972C17.9944 4.7814 18.292 5.40039 18.3291 6.06104C18.333 6.13108 18.333 6.20462 18.333 6.35171V15.4163C18.333 16.1067 17.7733 16.6663 17.083 16.6663C16.3927 16.6663 15.833 16.1067 15.833 15.4163V15.3568C15.833 14.6993 15.3 14.1663 14.6425 14.1663H13.333" stroke="#999999" stroke-width="1.3" stroke-linecap="round"/>
<path d="M18.333 6.66699H17.083C16.3927 6.66699 15.833 7.22663 15.833 7.91699V9.93274C15.833 10.4707 16.1773 10.9484 16.6878 11.1186L18.333 11.667" stroke="#999999" stroke-width="1.3" stroke-linecap="round"/>
</svg>
