<svg width="20" height="20" viewBox="0 0 20 20" fill="none" xmlns="http://www.w3.org/2000/svg">
<path d="M10.7778 10.7778L13.1111 6.88889M6.88889 6.88889H6.89667M10 5.33333H10.0078M14.6667 10H14.6744M5.33333 10H5.34111M11.5556 12.3333C11.5556 13.1925 10.8591 13.8889 10 13.8889C9.14087 13.8889 8.44444 13.1925 8.44444 12.3333C8.44444 11.4742 9.14087 10.7778 10 10.7778C10.8591 10.7778 11.5556 11.4742 11.5556 12.3333ZM17 10C17 13.866 13.866 17 10 17C6.13401 17 3 13.866 3 10C3 6.13401 6.13401 3 10 3C13.866 3 17 6.13401 17 10Z" stroke="#888888" stroke-linecap="round" stroke-linejoin="round"/>
</svg>
