<svg width="20" height="20" viewBox="0 0 20 20" fill="none" xmlns="http://www.w3.org/2000/svg">
<path d="M7.81675 5.99776C8.01758 5.99776 8.18038 5.83496 8.18038 5.63413C8.18038 5.43331 8.01758 5.27051 7.81675 5.27051C7.61593 5.27051 7.45312 5.43331 7.45312 5.63413C7.45312 5.83496 7.61593 5.99776 7.81675 5.99776Z" fill="#888888" stroke="#888888" stroke-width="0.2"/>
<path d="M6.36363 5.99776C6.56445 5.99776 6.72725 5.83496 6.72725 5.63413C6.72725 5.43331 6.56445 5.27051 6.36363 5.27051C6.1628 5.27051 6 5.43331 6 5.63413C6 5.83496 6.1628 5.99776 6.36363 5.99776Z" fill="#888888" stroke="#888888" stroke-width="0.2"/>
<path d="M9.27281 5.99776C9.47363 5.99776 9.63643 5.83496 9.63643 5.63413C9.63643 5.43331 9.47363 5.27051 9.27281 5.27051C9.07198 5.27051 8.90918 5.43331 8.90918 5.63413C8.90918 5.83496 9.07198 5.99776 9.27281 5.99776Z" fill="#888888" stroke="#888888" stroke-width="0.2"/>
<path d="M17.891 6.47274L16.0728 4.65454C15.9273 4.50907 15.7092 4.50907 15.5637 4.65454C15.4182 4.80001 15.4182 5.01817 15.5637 5.16364L16.4728 6.07274C16.1092 6.25455 15.8183 6.65455 15.8183 7.09093C15.8183 7.70912 16.291 8.18184 16.9092 8.18184C17.0546 8.18184 17.1637 8.14547 17.2728 8.10912V14.7273C17.2728 15.3455 16.8001 15.8183 16.1819 15.8183C15.5637 15.8183 15.091 15.3455 15.091 14.7273V8.90913C15.091 7.89093 14.291 7.09093 13.2728 7.09093H12.5455V3.8182C12.5455 2.8 11.7455 2 10.7273 2H4.90911C3.89091 2 3.09091 2.8 3.09091 3.8182V15.8183C2.47272 15.8183 2 16.291 2 16.9092C2 17.5274 2.47272 18.0001 3.09091 18.0001H12.5455C13.1637 18.0001 13.6364 17.5274 13.6364 16.9092C13.6364 16.291 13.1637 15.8183 12.5455 15.8183H4.90911C4.69092 15.8183 4.54548 15.9637 4.54548 16.1819C4.54548 16.4 4.69095 16.5455 4.90911 16.5455H12.5455C12.7637 16.5455 12.9091 16.691 12.9091 16.9091C12.9091 17.1273 12.7637 17.2728 12.5455 17.2728H3.09091C2.87272 17.2728 2.72728 17.1273 2.72728 16.9091C2.72728 16.691 2.87275 16.5455 3.09091 16.5455H3.45454C3.67273 16.5455 3.81816 16.4 3.81816 16.1819V3.8182C3.81816 3.20001 4.29089 2.72728 4.90908 2.72728H10.7273C11.3455 2.72728 11.8182 3.20001 11.8182 3.8182V14.7273C11.8182 14.9455 11.9637 15.091 12.1818 15.091C12.4 15.091 12.5455 14.9455 12.5455 14.7273V7.81821H13.2727C13.8909 7.81821 14.3637 8.29093 14.3637 8.90913V14.7273C14.3637 15.7455 15.1637 16.5455 16.1818 16.5455C17.2 16.5455 18 15.7455 18 14.7273V6.7273C18.0001 6.61821 17.9637 6.54549 17.891 6.47274ZM16.9092 7.45456C16.691 7.45456 16.5455 7.30909 16.5455 7.09093C16.5455 6.87274 16.691 6.7273 16.9092 6.7273C17.1273 6.7273 17.2728 6.87277 17.2728 7.09093C17.2728 7.30912 17.1273 7.45456 16.9092 7.45456Z" fill="#888888" stroke="#888888" stroke-width="0.2"/>
</svg>
