<svg width="14" height="14" viewBox="0 0 14 14" fill="none" xmlns="http://www.w3.org/2000/svg">
<g clip-path="url(#clip0_1193_4)">
<path d="M2.27461 7.54523L2.30647 7.57521L2.27461 7.54523C2.14303 7.68504 2.10713 7.8897 2.18328 8.06594C2.25943 8.24219 2.43306 8.35632 2.62506 8.35632H5.47346L3.91509 13.4211C3.84926 13.6349 3.93962 13.866 4.13311 13.9785C4.32658 14.0911 4.5721 14.0553 4.72551 13.8924L4.69365 13.8624L4.72551 13.8924L11.7255 6.4549L11.6936 6.42491L11.7255 6.4549C11.8571 6.31508 11.893 6.11044 11.8168 5.93419C11.7407 5.75793 11.567 5.64382 11.3751 5.64382H8.52665L10.085 0.579094C10.1508 0.365161 10.0605 0.134095 9.86699 0.0215627C9.67353 -0.0909726 9.428 -0.0552566 9.27461 0.107729V0.107732L2.27461 7.54523Z" fill="url(#paint0_linear_1193_4)"/>
<path d="M2.27461 7.54523L2.30647 7.57521L2.27461 7.54523ZM2.27461 7.54523C2.14303 7.68504 2.10713 7.8897 2.18328 8.06594C2.25943 8.24219 2.43306 8.35632 2.62506 8.35632H5.47346L3.91509 13.4211C3.84926 13.6349 3.93962 13.866 4.13311 13.9785C4.32658 14.0911 4.5721 14.0553 4.72551 13.8924L4.69365 13.8624L4.72551 13.8924L11.7255 6.4549L11.6936 6.42491L11.7255 6.4549C11.8571 6.31508 11.893 6.11044 11.8168 5.93419C11.7407 5.75793 11.567 5.64382 11.3751 5.64382H8.52665L10.085 0.579094C10.1508 0.365161 10.0605 0.134095 9.86699 0.0215627C9.67353 -0.0909726 9.428 -0.0552566 9.27461 0.107729V0.107732L2.27461 7.54523Z" stroke="#333333" stroke-width="0.1"/>
</g>
<defs>
<linearGradient id="paint0_linear_1193_4" x1="3.85982" y1="4.8988e-05" x2="10.1338" y2="1.42412" gradientUnits="userSpaceOnUse">
<stop offset="0.469591" stop-color="#FFC700"/>
<stop offset="1" stop-color="#E99E0C"/>
</linearGradient>
<clipPath id="clip0_1193_4">
<rect width="14" height="14" fill="white"/>
</clipPath>
</defs>
</svg>
