<svg width="275" height="180" viewBox="0 0 275 180" fill="none" xmlns="http://www.w3.org/2000/svg">
<g clip-path="url(#clip0_1759_10)">
<mask id="mask0_1759_10" style="mask-type:luminance" maskUnits="userSpaceOnUse" x="0" y="0" width="275" height="180">
<path d="M274.5 0H0V180H274.5V0Z" fill="white"/>
</mask>
<g mask="url(#mask0_1759_10)">
<mask id="mask1_1759_10" style="mask-type:luminance" maskUnits="userSpaceOnUse" x="124" y="0" width="152" height="182">
<path d="M275.054 0H124.072V181.286H275.054V0Z" fill="white"/>
</mask>
<g mask="url(#mask1_1759_10)">
<path d="M275.059 -0.0126953V134.087L271.483 135.586L211.324 160.784L155.492 181.282L136.376 181.191L129.164 172.649C126.26 169.159 124.506 164.856 124.143 160.33C123.78 155.804 124.824 151.277 127.135 147.368L139.382 126.731L157.273 96.576L208.587 10.1449C210.367 7.07591 212.918 4.5246 215.986 2.74316C219.054 0.961715 222.535 0.011802 226.083 -0.0126953H275.059Z" fill="url(#paint0_linear_1759_10)"/>
<path style="mix-blend-mode:overlay" opacity="0.45" d="M275.059 34.3096V134.087L211.324 160.789L155.492 181.282L136.376 181.19L129.164 172.649C126.26 169.159 124.506 164.856 124.143 160.33C123.78 155.805 124.824 151.277 127.135 147.368L157.273 96.5757C171.44 94.7596 174.217 113.25 174.295 113.802C174.273 113.411 173.804 104.492 180.986 100.365C188.324 96.1501 191.682 107.88 191.682 107.88C191.682 107.88 191.222 87.9215 210.155 82.2997C229.089 76.678 237.396 86.7181 237.396 86.7181C237.396 86.7181 234.885 64.8346 246.476 58.0092C258.067 51.1839 265.218 55.2026 265.409 55.8021C265.578 56.2931 263.55 40.6483 275.059 34.3096Z" fill="url(#paint1_linear_1759_10)"/>
<path d="M229.484 76.1167C230.444 76.1167 231.222 75.3074 231.222 74.3097C231.222 73.3113 230.444 72.502 229.484 72.502C228.525 72.502 227.746 73.3113 227.746 74.3097C227.746 75.3074 228.525 76.1167 229.484 76.1167Z" fill="url(#paint2_linear_1759_10)"/>
<path d="M201.306 76.1166C201.293 76.4574 201.179 76.7859 200.98 77.0623C200.781 77.3394 200.505 77.5509 200.187 77.6717C199.868 77.7926 199.521 77.8176 199.189 77.7431C198.856 77.6679 198.553 77.4975 198.317 77.2519C198.081 77.0064 197.922 76.6965 197.861 76.3616C197.799 76.0266 197.838 75.6808 197.971 75.3671C198.104 75.0534 198.327 74.7859 198.61 74.5982C198.894 74.4099 199.227 74.3096 199.568 74.3096C200.038 74.3199 200.485 74.5159 200.811 74.8541C201.136 75.1929 201.314 75.6467 201.306 76.1166Z" fill="url(#paint3_linear_1759_10)"/>
<path d="M261.343 48.1511C261.33 48.4915 261.216 48.8204 261.017 49.0969C260.818 49.3734 260.542 49.5853 260.224 49.7063C259.905 49.8272 259.558 49.8518 259.226 49.7771C258.893 49.7024 258.59 49.5317 258.354 49.2861C258.118 49.0405 257.959 48.7309 257.898 48.3959C257.836 48.0608 257.874 47.715 258.008 47.4015C258.141 47.088 258.363 46.8206 258.648 46.6325C258.932 46.4445 259.265 46.3441 259.605 46.3438C259.838 46.3483 260.068 46.3986 260.281 46.4919C260.494 46.5852 260.687 46.7196 260.849 46.8874C261.01 47.0553 261.137 47.2533 261.222 47.4701C261.306 47.6869 261.348 47.9183 261.343 48.1511Z" fill="url(#paint4_linear_1759_10)"/>
<path d="M241.992 55.4675C241.983 55.6882 241.91 55.9015 241.781 56.0808C241.652 56.2601 241.474 56.3976 241.267 56.476C241.06 56.5544 240.835 56.5703 240.62 56.5218C240.405 56.4732 240.209 56.3623 240.056 56.2029C239.903 56.0435 239.8 55.8427 239.76 55.6254C239.721 55.4081 239.746 55.184 239.833 54.981C239.92 54.778 240.065 54.605 240.25 54.4837C240.434 54.3624 240.65 54.2981 240.871 54.2988C241.175 54.3056 241.463 54.4325 241.673 54.6516C241.883 54.8706 241.998 55.1641 241.992 55.4675Z" fill="url(#paint5_linear_1759_10)"/>
<path d="M164.885 93.4432C164.877 93.6637 164.804 93.8771 164.676 94.0571C164.548 94.2371 164.37 94.3753 164.163 94.4544C163.958 94.5335 163.733 94.5502 163.517 94.5026C163.301 94.455 163.104 94.3445 162.951 94.1857C162.797 94.0269 162.694 93.8263 162.654 93.6097C162.613 93.3924 162.638 93.168 162.724 92.9649C162.81 92.7611 162.954 92.5882 163.139 92.466C163.322 92.3439 163.538 92.279 163.76 92.2783C164.063 92.2841 164.352 92.4101 164.562 92.628C164.773 92.8466 164.889 93.1397 164.885 93.4432Z" fill="url(#paint6_linear_1759_10)"/>
<path d="M275.058 12.791V17.6004C240.437 20.8024 231.426 27.9883 208.621 42.0429C230.283 19.5989 259.635 14.09 275.058 12.791Z" fill="url(#paint7_linear_1759_10)"/>
<path d="M271.483 135.586L211.324 160.784L155.492 181.281L136.376 181.191L129.164 172.649C126.26 169.159 124.506 164.856 124.143 160.33C123.78 155.804 124.824 151.276 127.135 147.368L139.382 126.731H144.435V137.032L147.224 134.134V124.185C147.224 124.185 147.567 118.972 153.741 117.494C158.381 115.218 158.25 97.9437 159.411 98.2221C160.57 98.4998 159.411 133.017 159.411 133.017L169.134 132.119L174.864 114.15H186.972L198.177 107.198V129.325H203.973V119.502H211.667V111.208L213.839 108.931V105.855H222.767V132.123H232.686V111.608L239.32 104.713V94.6118L249.721 105.417V130.758H265.531L271.483 135.586Z" fill="url(#paint8_linear_1759_10)"/>
<g style="mix-blend-mode:overlay" opacity="0.79">
<path d="M150.578 122.882H149.713C149.507 122.882 149.34 123.05 149.34 123.256V124.181C149.34 124.387 149.507 124.555 149.713 124.555H150.578C150.784 124.555 150.951 124.387 150.951 124.181V123.256C150.951 123.05 150.784 122.882 150.578 122.882Z" fill="white"/>
</g>
<g style="mix-blend-mode:overlay" opacity="0.79">
<path d="M153.842 122.882H152.977C152.771 122.882 152.604 123.05 152.604 123.256V124.181C152.604 124.387 152.771 124.555 152.977 124.555H153.842C154.048 124.555 154.215 124.387 154.215 124.181V123.256C154.215 123.05 154.048 122.882 153.842 122.882Z" fill="white"/>
</g>
<g style="mix-blend-mode:overlay" opacity="0.79">
<path d="M208.088 122.882H207.223C207.017 122.882 206.85 123.05 206.85 123.256V124.181C206.85 124.387 207.017 124.555 207.223 124.555H208.088C208.294 124.555 208.461 124.387 208.461 124.181V123.256C208.461 123.05 208.294 122.882 208.088 122.882Z" fill="white"/>
</g>
<g style="mix-blend-mode:overlay" opacity="0.79">
<path d="M211.496 122.882H210.632C210.426 122.882 210.258 123.05 210.258 123.256V124.181C210.258 124.387 210.426 124.555 210.632 124.555H211.496C211.702 124.555 211.87 124.387 211.87 124.181V123.256C211.87 123.05 211.702 122.882 211.496 122.882Z" fill="white"/>
</g>
<g style="mix-blend-mode:overlay" opacity="0.79">
<path d="M214.912 122.882H214.047C213.841 122.882 213.674 123.05 213.674 123.256V124.181C213.674 124.387 213.841 124.555 214.047 124.555H214.912C215.118 124.555 215.285 124.387 215.285 124.181V123.256C215.285 123.05 215.118 122.882 214.912 122.882Z" fill="white"/>
</g>
<g style="mix-blend-mode:overlay" opacity="0.79">
<path d="M218.328 122.882H217.464C217.258 122.882 217.09 123.05 217.09 123.256V124.181C217.09 124.387 217.258 124.555 217.464 124.555H218.328C218.534 124.555 218.702 124.387 218.702 124.181V123.256C218.702 123.05 218.534 122.882 218.328 122.882Z" fill="white"/>
</g>
<g style="mix-blend-mode:overlay" opacity="0.79">
<path d="M214.912 113.002H214.047C213.841 113.002 213.674 113.17 213.674 113.376V114.302C213.674 114.508 213.841 114.675 214.047 114.675H214.912C215.118 114.675 215.285 114.508 215.285 114.302V113.376C215.285 113.17 215.118 113.002 214.912 113.002Z" fill="white"/>
</g>
<g style="mix-blend-mode:overlay" opacity="0.79">
<path d="M237.277 113.537H236.413C236.206 113.537 236.039 113.704 236.039 113.911V114.836C236.039 115.042 236.206 115.209 236.413 115.209H237.277C237.484 115.209 237.651 115.042 237.651 114.836V113.911C237.651 113.704 237.484 113.537 237.277 113.537Z" fill="white"/>
</g>
<g style="mix-blend-mode:overlay" opacity="0.79">
<path d="M246.685 113.537H245.821C245.614 113.537 245.447 113.704 245.447 113.911V114.836C245.447 115.042 245.614 115.209 245.821 115.209H246.685C246.892 115.209 247.059 115.042 247.059 114.836V113.911C247.059 113.704 246.892 113.537 246.685 113.537Z" fill="white"/>
</g>
<g style="mix-blend-mode:overlay" opacity="0.79">
<path d="M240.146 118.724H239.282C239.075 118.724 238.908 118.891 238.908 119.098V120.023C238.908 120.229 239.075 120.397 239.282 120.397H240.146C240.353 120.397 240.52 120.229 240.52 120.023V119.098C240.52 118.891 240.353 118.724 240.146 118.724Z" fill="white"/>
</g>
<g style="mix-blend-mode:overlay" opacity="0.79">
<path d="M138.631 137.115H137.766C137.56 137.115 137.393 137.282 137.393 137.489V138.414C137.393 138.62 137.56 138.787 137.766 138.787H138.631C138.837 138.787 139.004 138.62 139.004 138.414V137.489C139.004 137.282 138.837 137.115 138.631 137.115Z" fill="white"/>
</g>
<g style="mix-blend-mode:overlay" opacity="0.79">
<path d="M157.103 122.882H156.239C156.032 122.882 155.865 123.05 155.865 123.256V124.181C155.865 124.387 156.032 124.555 156.239 124.555H157.103C157.31 124.555 157.477 124.387 157.477 124.181V123.256C157.477 123.05 157.31 122.882 157.103 122.882Z" fill="white"/>
</g>
<path d="M185.174 40.2044C184.477 40.9256 183.681 41.5444 182.811 42.0422C181.104 43.0301 179.113 43.4113 177.163 43.124C176.936 43.0892 176.728 43.0458 176.585 43.011C176.294 42.9415 176.15 42.885 176.15 42.885C175.094 42.4638 174.184 41.7431 173.531 40.8114C172.879 39.8798 172.514 38.7779 172.48 37.6411C172.357 35.3907 174.53 31.4067 176.454 27.6921C177.154 26.3365 177.823 25.0202 178.331 23.8341C178.957 22.3743 179.348 21.1187 179.278 20.2324C180.993 21.8601 182.478 23.7134 183.693 25.7414C186.817 30.9114 188.258 37.0546 185.174 40.2044Z" fill="url(#paint9_linear_1759_10)"/>
<path style="mix-blend-mode:overlay" opacity="0.45" d="M177.887 42.7382C177.643 42.8815 177.408 43.0075 177.17 43.1249C176.82 43.0757 176.476 42.9958 176.14 42.8859C175.085 42.4634 174.177 41.7421 173.526 40.8105C172.876 39.8789 172.511 38.7777 172.478 37.642C172.308 34.5704 176.418 28.2794 178.33 23.835C179.053 25.2947 179.646 26.8154 180.103 28.3794C181.814 34.2228 181.658 40.5442 177.887 42.7382Z" fill="url(#paint10_linear_1759_10)"/>
<path style="mix-blend-mode:overlay" opacity="0.45" d="M176.594 42.9983C176.303 42.9288 176.159 42.8724 176.159 42.8724C175.103 42.4533 174.192 41.7352 173.539 40.806C172.885 39.8768 172.517 38.777 172.48 37.6415C172.357 35.391 174.53 31.407 176.454 27.6924C176.75 28.4527 177.019 29.2347 177.25 30.0298C178.683 34.9218 178.805 40.1526 176.594 42.9983Z" fill="url(#paint11_linear_1759_10)"/>
<path style="mix-blend-mode:overlay" opacity="0.45" d="M185.174 40.2053C184.477 40.9264 183.681 41.5452 182.811 42.043C181.724 41.1933 180.977 39.9839 180.704 38.6325C180.108 35.9954 182.363 30.2953 183.684 25.7422C186.816 30.9122 188.259 37.0554 185.174 40.2053Z" fill="url(#paint12_linear_1759_10)"/>
<path d="M179.465 43.2246V129.317L162.639 148.811L166.736 112.403L174.1 46.9696L179.465 43.2246Z" fill="url(#paint13_linear_1759_10)"/>
<path style="mix-blend-mode:overlay" opacity="0.45" d="M196.296 148.81L194.51 146.742L179.47 129.316L162.639 148.81L166.736 112.398C170.779 115.597 175.033 118.518 179.47 121.144C183.953 123.751 188.902 126.167 193.919 127.661L194.684 134.465L196.014 146.256L196.296 148.81Z" fill="url(#paint14_linear_1759_10)"/>
<path d="M154.48 168.304L144.436 150.639L179.465 129.316V166.075L154.48 168.304Z" fill="url(#paint15_linear_1759_10)"/>
<path d="M174.1 46.9741L169.143 43.2248L179.466 34.792V43.2248L174.1 46.9741Z" fill="url(#paint16_linear_1759_10)"/>
<path d="M196.295 148.811L194.51 146.743L179.465 129.317V43.2246L184.83 46.9696L186.034 57.6486L193.915 127.679L194.684 134.482L196.009 146.273L196.295 148.811Z" fill="url(#paint17_linear_1759_10)"/>
<path d="M214.499 150.639L204.455 168.304L179.465 166.075V129.316L199.424 141.468L214.499 150.639Z" fill="url(#paint18_linear_1759_10)"/>
<path d="M184.835 46.9741L189.792 43.2248L179.465 34.792V43.2248L184.835 46.9741Z" fill="url(#paint19_linear_1759_10)"/>
<path style="mix-blend-mode:overlay" opacity="0.45" d="M214.499 150.64L204.454 168.304L179.469 166.071V155.049C185.985 152.512 194.145 148.224 199.428 141.463L214.499 150.64Z" fill="url(#paint20_linear_1759_10)"/>
<path style="mix-blend-mode:overlay" opacity="0.45" d="M186.034 57.6486L179.466 51.7747L174.1 46.9696L179.466 43.2246L184.831 46.9696L186.034 57.6486Z" fill="url(#paint21_linear_1759_10)"/>
<path style="mix-blend-mode:overlay" opacity="0.45" d="M145.422 152.382L179.465 133.152L211.667 152.872L210.829 148.406L179.465 129.316L144.436 150.639L145.422 152.382Z" fill="url(#paint22_linear_1759_10)"/>
<path d="M242.813 48.9551C247.71 48.9551 251.68 44.8315 251.68 39.7447C251.68 34.6579 247.71 30.5342 242.813 30.5342C237.916 30.5342 233.945 34.6579 233.945 39.7447C233.945 44.8315 237.916 48.9551 242.813 48.9551Z" fill="url(#paint23_linear_1759_10)"/>
<path d="M275.059 116.625V181.19H141.085C141.085 181.19 138.765 175.707 141.859 171.784C144.952 167.861 149.757 169.734 150.873 171.784C150.439 162.952 154.997 159.116 161.092 158.846C167.188 158.577 170.02 165.985 170.02 165.985C170.02 165.985 169.507 158.042 177.15 157.152C184.792 156.261 185.478 163.13 185.478 163.13C185.478 163.13 185.565 154.297 194.493 152.959C203.3 151.656 206.18 156.739 206.258 156.869C205.061 152.255 205.323 147.382 207.01 142.923C208.409 139.252 210.998 135.359 215.616 131.91C229.614 121.483 240.95 133.07 240.95 133.07C240.95 133.07 237.856 126.118 244.425 121.383C250.995 116.647 257.307 126.271 257.307 126.271C257.307 126.271 258.354 111.738 275.059 116.625Z" fill="url(#paint24_linear_1759_10)"/>
<path style="mix-blend-mode:overlay" opacity="0.45" d="M275.058 126.262V181.19H185.377L183.418 176.689C183.418 176.689 185.156 166.697 197.777 162.787C210.398 158.876 218.197 162.444 218.197 162.444C218.197 162.444 216.993 143.471 231.335 137.957C245.676 132.444 260.786 141.907 260.786 141.907C260.786 141.907 263.245 129.281 275.058 126.262Z" fill="url(#paint25_linear_1759_10)"/>
<path style="mix-blend-mode:overlay" opacity="0.45" d="M275.057 116.626V119.936C271.43 118.138 266.451 118.881 263.271 121.374C259.408 124.416 259.321 133.422 256.663 131.098C254.004 128.773 253.226 123.964 248.673 123.786C244.12 123.608 242.491 126.909 243.694 131.723C244.898 136.537 243.177 138.24 240.522 136.229C237.868 134.217 232.533 129.76 222.914 131.628C213.296 133.496 213.039 140.46 209.607 142.155C208.806 142.598 207.914 142.855 207 142.906C208.399 139.235 210.988 135.342 215.607 131.893C229.605 121.466 240.94 133.053 240.94 133.053C240.94 133.053 237.846 126.101 244.416 121.366C250.984 116.63 257.297 126.254 257.297 126.254C257.297 126.254 258.353 111.739 275.057 116.626Z" fill="url(#paint26_linear_1759_10)"/>
<path d="M275.058 144.809V181.191H157.373C157.711 179.772 158.458 178.484 159.519 177.485C163.164 174.113 167.63 176.746 168.421 178.953C169.333 170.159 174.408 167.114 180.468 167.844C186.529 168.574 188.211 176.346 188.211 176.346C188.211 176.346 188.897 168.422 196.583 168.791C204.268 169.16 203.908 176.051 203.908 176.051C203.908 176.051 205.324 167.34 214.335 167.475C223.228 167.609 225.3 173.123 225.356 173.266C225.309 172.966 223.128 158.06 238.39 150.127C253.653 142.194 263.002 155.088 263.224 155.397C263.172 155.175 261.334 148.011 268.438 144.427C269.469 143.875 270.634 143.618 271.802 143.686C272.97 143.753 274.097 144.142 275.058 144.809Z" fill="url(#paint27_linear_1759_10)"/>
<path style="mix-blend-mode:overlay" opacity="0.45" d="M275.058 158.494V181.19H228.932C228.806 178.558 229.606 174.674 234.506 171.963C242.578 167.501 254.773 173.566 254.773 173.566C254.773 173.566 252.628 166.905 259.153 162.43C265.678 157.955 272.547 163.929 272.547 163.929C272.547 163.929 272.404 160.415 275.058 158.494Z" fill="url(#paint28_linear_1759_10)"/>
</g>
</g>
</g>
<defs>
<linearGradient id="paint0_linear_1759_10" x1="455.167" y1="212.232" x2="143.557" y2="60.2855" gradientUnits="userSpaceOnUse">
<stop stop-color="#81B1FF"/>
<stop offset="1" stop-color="white"/>
</linearGradient>
<linearGradient id="paint1_linear_1759_10" x1="180.538" y1="48.2991" x2="229.706" y2="177.963" gradientUnits="userSpaceOnUse">
<stop stop-color="white"/>
<stop offset="1" stop-color="white" stop-opacity="0"/>
</linearGradient>
<linearGradient id="paint2_linear_1759_10" x1="218.262" y1="54.4722" x2="251.685" y2="113.558" gradientUnits="userSpaceOnUse">
<stop stop-color="white"/>
<stop offset="1" stop-color="white" stop-opacity="0"/>
</linearGradient>
<linearGradient id="paint3_linear_1759_10" x1="188.346" y1="56.2795" x2="221.765" y2="115.361" gradientUnits="userSpaceOnUse">
<stop stop-color="white"/>
<stop offset="1" stop-color="white" stop-opacity="0"/>
</linearGradient>
<linearGradient id="paint4_linear_1759_10" x1="248.384" y1="28.3138" x2="281.802" y2="87.4" gradientUnits="userSpaceOnUse">
<stop stop-color="white"/>
<stop offset="1" stop-color="white" stop-opacity="0"/>
</linearGradient>
<linearGradient id="paint5_linear_1759_10" x1="233.633" y1="42.651" x2="255.226" y2="80.8223" gradientUnits="userSpaceOnUse">
<stop stop-color="white"/>
<stop offset="1" stop-color="white" stop-opacity="0"/>
</linearGradient>
<linearGradient id="paint6_linear_1759_10" x1="156.513" y1="80.6311" x2="178.101" y2="118.798" gradientUnits="userSpaceOnUse">
<stop stop-color="white"/>
<stop offset="1" stop-color="white" stop-opacity="0"/>
</linearGradient>
<linearGradient id="paint7_linear_1759_10" x1="315.441" y1="-1.81977" x2="192.312" y2="43.2377" gradientUnits="userSpaceOnUse">
<stop stop-color="white"/>
<stop offset="1" stop-color="white" stop-opacity="0"/>
</linearGradient>
<linearGradient id="paint8_linear_1759_10" x1="164.138" y1="-34.17" x2="208.313" y2="205.19" gradientUnits="userSpaceOnUse">
<stop stop-color="#81B1FF"/>
<stop offset="1" stop-color="white"/>
</linearGradient>
<linearGradient id="paint9_linear_1759_10" x1="179.813" y1="42.5201" x2="179.278" y2="18.877" gradientUnits="userSpaceOnUse">
<stop stop-color="#FFBD6D"/>
<stop offset="1" stop-color="#FFEE8B"/>
</linearGradient>
<linearGradient id="paint10_linear_1759_10" x1="176.34" y1="18.704" x2="177.009" y2="43.8634" gradientUnits="userSpaceOnUse">
<stop/>
<stop offset="1" stop-opacity="0"/>
</linearGradient>
<linearGradient id="paint11_linear_1759_10" x1="175.021" y1="23.6042" x2="175.555" y2="43.6239" gradientUnits="userSpaceOnUse">
<stop/>
<stop offset="1" stop-opacity="0"/>
</linearGradient>
<linearGradient id="paint12_linear_1759_10" x1="184.257" y1="22.2013" x2="183.367" y2="47.2695" gradientUnits="userSpaceOnUse">
<stop/>
<stop offset="1" stop-opacity="0"/>
</linearGradient>
<linearGradient id="paint13_linear_1759_10" x1="135.133" y1="75.2397" x2="197.816" y2="111.504" gradientUnits="userSpaceOnUse">
<stop stop-color="#88BAEA"/>
<stop offset="1" stop-color="white"/>
</linearGradient>
<linearGradient id="paint14_linear_1759_10" x1="159.819" y1="167.483" x2="203.782" y2="92.7611" gradientUnits="userSpaceOnUse">
<stop/>
<stop offset="1" stop-opacity="0"/>
</linearGradient>
<linearGradient id="paint15_linear_1759_10" x1="163.865" y1="150.709" x2="171.902" y2="195.714" gradientUnits="userSpaceOnUse">
<stop stop-color="#88BAEA"/>
<stop offset="1" stop-color="white"/>
</linearGradient>
<linearGradient id="paint16_linear_1759_10" x1="172.784" y1="35.1265" x2="181.416" y2="57.1665" gradientUnits="userSpaceOnUse">
<stop stop-color="#88BAEA"/>
<stop offset="1" stop-color="white"/>
</linearGradient>
<linearGradient id="paint17_linear_1759_10" x1="191.916" y1="76.6951" x2="170.189" y2="180.752" gradientUnits="userSpaceOnUse">
<stop stop-color="#88BAEA"/>
<stop offset="1" stop-color="white"/>
</linearGradient>
<linearGradient id="paint18_linear_1759_10" x1="199.628" y1="117.095" x2="194.002" y2="165.797" gradientUnits="userSpaceOnUse">
<stop stop-color="#88BAEA"/>
<stop offset="1" stop-color="white"/>
</linearGradient>
<linearGradient id="paint19_linear_1759_10" x1="189.914" y1="49.0509" x2="180.56" y2="38.7369" gradientUnits="userSpaceOnUse">
<stop stop-color="#88BAEA"/>
<stop offset="1" stop-color="white"/>
</linearGradient>
<linearGradient id="paint20_linear_1759_10" x1="210.25" y1="175.716" x2="160.674" y2="110.834" gradientUnits="userSpaceOnUse">
<stop/>
<stop offset="1" stop-opacity="0"/>
</linearGradient>
<linearGradient id="paint21_linear_1759_10" x1="175.369" y1="31.0598" x2="195.762" y2="110.227" gradientUnits="userSpaceOnUse">
<stop/>
<stop offset="1" stop-opacity="0"/>
</linearGradient>
<linearGradient id="paint22_linear_1759_10" x1="175.004" y1="121.522" x2="182.794" y2="198.842" gradientUnits="userSpaceOnUse">
<stop/>
<stop offset="1" stop-opacity="0"/>
</linearGradient>
<linearGradient id="paint23_linear_1759_10" x1="252.866" y1="52.9174" x2="234.328" y2="28.6225" gradientUnits="userSpaceOnUse">
<stop stop-color="#EA9A38"/>
<stop offset="1" stop-color="#F7E058"/>
</linearGradient>
<linearGradient id="paint24_linear_1759_10" x1="201.327" y1="132.931" x2="234.654" y2="211.88" gradientUnits="userSpaceOnUse">
<stop stop-color="#4ADFA5"/>
<stop offset="1" stop-color="#4084B6"/>
</linearGradient>
<linearGradient id="paint25_linear_1759_10" x1="275.714" y1="213.349" x2="211.384" y2="129.047" gradientUnits="userSpaceOnUse">
<stop offset="0.66"/>
<stop offset="1" stop-opacity="0"/>
</linearGradient>
<linearGradient id="paint26_linear_1759_10" x1="221.085" y1="76.4605" x2="255.533" y2="168.518" gradientUnits="userSpaceOnUse">
<stop offset="0.52" stop-color="white"/>
<stop offset="1" stop-color="white" stop-opacity="0"/>
</linearGradient>
<linearGradient id="paint27_linear_1759_10" x1="213.453" y1="157.708" x2="245.363" y2="218.806" gradientUnits="userSpaceOnUse">
<stop stop-color="#54E0AA"/>
<stop offset="1" stop-color="#4084B6"/>
</linearGradient>
<linearGradient id="paint28_linear_1759_10" x1="281.502" y1="226.456" x2="239.807" y2="146.451" gradientUnits="userSpaceOnUse">
<stop offset="0.585"/>
<stop offset="1" stop-opacity="0"/>
</linearGradient>
<clipPath id="clip0_1759_10">
<rect width="274.5" height="180" fill="white"/>
</clipPath>
</defs>
</svg>
