<svg width="188" height="36" viewBox="0 0 188 36" fill="none" xmlns="http://www.w3.org/2000/svg">
<g clip-path="url(#clip0_2690_194)">
<path d="M14.3667 24.2198C14.3667 22.8841 15.4446 21.8013 16.7743 21.8013C18.104 21.8013 19.182 22.8841 19.182 24.2198C19.182 25.5555 18.104 26.6383 16.7743 26.6383C15.4446 26.6383 14.3667 25.5555 14.3667 24.2198Z" fill="url(#paint0_linear_2690_194)"/>
<path d="M17.7781 9.7831C18.8629 10.5556 19.1189 12.0652 18.3499 13.1548L9.61318 25.5339C8.84419 26.6236 7.34137 26.8807 6.25658 26.1082C5.17184 25.3357 4.91588 23.8261 5.68492 22.7365L14.4215 10.3574C15.1905 9.26772 16.6934 9.0106 17.7781 9.7831Z" fill="url(#paint1_linear_2690_194)"/>
<path d="M9.14658 9.89335C10.2376 10.6569 10.5058 12.1644 9.74565 13.2603L5.00197 20.0993C4.24182 21.1953 2.74116 21.4647 1.65015 20.7011C0.559131 19.9375 0.290921 18.4301 1.05107 17.3341L5.79474 10.4951C6.55488 9.39919 8.05553 9.12978 9.14658 9.89335Z" fill="url(#paint2_linear_2690_194)"/>
</g>
<path d="M174.748 14.022C175.789 14.022 176.68 14.2992 177.419 14.8536C178.158 15.3912 178.662 16.1976 178.931 17.2728L178.578 17.3736L178.729 16.92C178.948 16.416 179.309 15.9456 179.813 15.5088C180.334 15.0552 180.922 14.694 181.577 14.4252C182.232 14.1564 182.896 14.022 183.568 14.022C184.626 14.022 185.474 14.2488 186.113 14.7024C186.768 15.156 187.238 15.7692 187.524 16.542C187.826 17.298 187.978 18.1548 187.978 19.1124V26.244C187.978 26.4456 187.902 26.622 187.751 26.7732C187.616 26.9244 187.44 27 187.222 27C187.003 27 186.818 26.9244 186.667 26.7732C186.533 26.622 186.466 26.4456 186.466 26.244V19.188C186.466 18.4992 186.356 17.8692 186.138 17.298C185.92 16.7268 185.575 16.2732 185.105 15.9372C184.634 15.6012 184.004 15.4332 183.215 15.4332C182.526 15.4332 181.862 15.6012 181.224 15.9372C180.602 16.2732 180.09 16.7268 179.687 17.298C179.3 17.8692 179.107 18.4992 179.107 19.188V26.244C179.107 26.4456 179.032 26.622 178.88 26.7732C178.746 26.9244 178.57 27 178.351 27C178.133 27 177.948 26.9244 177.797 26.7732C177.662 26.622 177.595 26.4456 177.595 26.244V19.1124C177.595 18.4236 177.494 17.802 177.293 17.2476C177.091 16.6932 176.764 16.2564 176.31 15.9372C175.856 15.6012 175.243 15.4332 174.47 15.4332C173.782 15.4332 173.126 15.6012 172.505 15.9372C171.9 16.2564 171.404 16.6932 171.018 17.2476C170.648 17.802 170.464 18.4236 170.464 19.1124V26.244C170.464 26.4456 170.388 26.622 170.237 26.7732C170.086 26.9244 169.909 27 169.708 27C169.472 27 169.288 26.9244 169.153 26.7732C169.019 26.622 168.952 26.4456 168.952 26.244V14.9544C168.952 14.7528 169.019 14.5764 169.153 14.4252C169.304 14.274 169.489 14.1984 169.708 14.1984C169.926 14.1984 170.102 14.274 170.237 14.4252C170.388 14.5764 170.464 14.7528 170.464 14.9544V17.298L169.783 18.2304C169.834 17.7264 169.993 17.2224 170.262 16.7184C170.548 16.2144 170.917 15.7608 171.371 15.3576C171.824 14.9544 172.337 14.6352 172.908 14.4C173.496 14.148 174.109 14.022 174.748 14.022Z" fill="#A7CABE"/>
<path d="M167.25 20.5492C167.25 21.826 166.973 22.9768 166.419 24.0016C165.864 25.0096 165.108 25.8076 164.151 26.3956C163.193 26.9668 162.101 27.2524 160.875 27.2524C159.682 27.2524 158.598 26.9668 157.624 26.3956C156.666 25.8076 155.902 25.0096 155.331 24.0016C154.776 22.9768 154.499 21.826 154.499 20.5492C154.499 19.2556 154.776 18.1048 155.331 17.0968C155.902 16.0888 156.666 15.2908 157.624 14.7028C158.598 14.1148 159.682 13.8208 160.875 13.8208C162.101 13.8208 163.193 14.1148 164.151 14.7028C165.108 15.2908 165.864 16.0888 166.419 17.0968C166.973 18.1048 167.25 19.2556 167.25 20.5492ZM165.738 20.5492C165.738 19.5244 165.528 18.6172 165.108 17.8276C164.688 17.0212 164.109 16.3912 163.369 15.9376C162.647 15.4672 161.815 15.232 160.875 15.232C159.967 15.232 159.144 15.4672 158.405 15.9376C157.666 16.3912 157.078 17.0212 156.641 17.8276C156.221 18.6172 156.011 19.5244 156.011 20.5492C156.011 21.574 156.221 22.4812 156.641 23.2708C157.078 24.0604 157.666 24.6904 158.405 25.1608C159.144 25.6144 159.967 25.8412 160.875 25.8412C161.815 25.8412 162.647 25.6144 163.369 25.1608C164.109 24.6904 164.688 24.0604 165.108 23.2708C165.528 22.4812 165.738 21.574 165.738 20.5492Z" fill="#A7CABE"/>
<path d="M149.394 13.8208C150.201 13.8208 150.94 13.9132 151.612 14.098C152.284 14.266 152.821 14.5012 153.225 14.8036C153.645 15.106 153.855 15.4336 153.855 15.7864C153.855 15.9544 153.796 16.1224 153.678 16.2904C153.561 16.4416 153.401 16.5172 153.199 16.5172C152.998 16.5172 152.83 16.4668 152.695 16.366C152.578 16.2652 152.452 16.1476 152.317 16.0132C152.2 15.8788 152.023 15.7528 151.788 15.6352C151.57 15.5344 151.259 15.442 150.856 15.358C150.453 15.274 149.991 15.232 149.47 15.232C148.529 15.232 147.681 15.4672 146.925 15.9376C146.169 16.408 145.572 17.0464 145.135 17.8528C144.699 18.6424 144.48 19.5328 144.48 20.524C144.48 21.532 144.69 22.4392 145.11 23.2456C145.53 24.052 146.11 24.6904 146.849 25.1608C147.588 25.6144 148.453 25.8412 149.445 25.8412C150.117 25.8412 150.637 25.7824 151.007 25.6648C151.377 25.5472 151.696 25.4128 151.965 25.2616C152.284 25.0768 152.511 24.9004 152.645 24.7324C152.796 24.5476 152.989 24.4552 153.225 24.4552C153.443 24.4552 153.603 24.5224 153.703 24.6568C153.821 24.7744 153.88 24.934 153.88 25.1356C153.88 25.4044 153.678 25.7068 153.275 26.0428C152.889 26.362 152.351 26.6476 151.662 26.8996C150.973 27.1348 150.184 27.2524 149.293 27.2524C148.033 27.2524 146.925 26.9584 145.967 26.3704C145.026 25.7824 144.287 24.9844 143.749 23.9764C143.229 22.9516 142.968 21.8008 142.968 20.524C142.968 19.2976 143.237 18.1804 143.775 17.1724C144.312 16.1644 145.06 15.358 146.017 14.7532C146.992 14.1316 148.117 13.8208 149.394 13.8208Z" fill="#A7CABE"/>
<path d="M140.885 26.9999C140.599 26.9999 140.381 26.9075 140.23 26.7227C140.079 26.5379 140.003 26.3027 140.003 26.0171V25.4879C140.003 25.1855 140.079 24.9503 140.23 24.7823C140.381 24.6143 140.599 24.5303 140.885 24.5303H141.061C141.347 24.5303 141.565 24.6143 141.717 24.7823C141.868 24.9503 141.943 25.1855 141.943 25.4879V26.0171C141.943 26.3027 141.868 26.5379 141.717 26.7227C141.565 26.9075 141.347 26.9999 141.061 26.9999H140.885Z" fill="#A7CABE"/>
<path d="M137.178 13.5432C137.548 13.5432 137.85 13.6692 138.086 13.9212C138.321 14.1564 138.438 14.4588 138.438 14.8284V25.7148C138.438 26.0844 138.321 26.3952 138.086 26.6472C137.85 26.8824 137.548 27 137.178 27C136.826 27 136.523 26.8824 136.271 26.6472C136.036 26.3952 135.918 26.0844 135.918 25.7148V23.9004L136.448 23.976C136.448 24.2784 136.322 24.6144 136.07 24.984C135.834 25.3536 135.507 25.7148 135.087 26.0676C134.667 26.4036 134.171 26.6892 133.6 26.9244C133.029 27.1428 132.416 27.252 131.76 27.252C130.601 27.252 129.56 26.958 128.636 26.37C127.712 25.7652 126.981 24.942 126.443 23.9004C125.906 22.8588 125.637 21.6744 125.637 20.3472C125.637 18.9864 125.906 17.7936 126.443 16.7688C126.981 15.7272 127.703 14.9124 128.61 14.3244C129.534 13.7364 130.559 13.4424 131.685 13.4424C132.407 13.4424 133.071 13.56 133.676 13.7952C134.297 14.0304 134.835 14.3328 135.288 14.7024C135.742 15.072 136.086 15.4668 136.322 15.8868C136.574 16.29 136.7 16.6764 136.7 17.046L135.918 17.1216V14.8284C135.918 14.4756 136.036 14.1732 136.271 13.9212C136.523 13.6692 136.826 13.5432 137.178 13.5432ZM132.038 24.9336C132.827 24.9336 133.524 24.732 134.129 24.3288C134.734 23.9256 135.204 23.3796 135.54 22.6908C135.876 21.9852 136.044 21.204 136.044 20.3472C136.044 19.4736 135.876 18.6924 135.54 18.0036C135.204 17.3148 134.734 16.7688 134.129 16.3656C133.524 15.9624 132.827 15.7608 132.038 15.7608C131.265 15.7608 130.576 15.9624 129.971 16.3656C129.383 16.7688 128.913 17.3148 128.56 18.0036C128.224 18.6924 128.056 19.4736 128.056 20.3472C128.056 21.204 128.224 21.9852 128.56 22.6908C128.913 23.3796 129.383 23.9256 129.971 24.3288C130.576 24.732 131.265 24.9336 132.038 24.9336Z" fill="url(#paint3_linear_2690_194)"/>
<path d="M124.439 25.7151C124.439 26.0847 124.322 26.3955 124.086 26.6475C123.851 26.8827 123.549 27.0003 123.179 27.0003C122.826 27.0003 122.524 26.8827 122.272 26.6475C122.037 26.3955 121.919 26.0847 121.919 25.7151V14.9295C121.919 14.5599 122.037 14.2575 122.272 14.0223C122.524 13.7703 122.826 13.6443 123.179 13.6443C123.549 13.6443 123.851 13.7703 124.086 14.0223C124.322 14.2575 124.439 14.5599 124.439 14.9295V25.7151ZM123.154 11.9811C122.667 11.9811 122.314 11.8971 122.096 11.7291C121.877 11.5443 121.768 11.2419 121.768 10.8219V10.4187C121.768 9.99867 121.886 9.70467 122.121 9.53667C122.356 9.36867 122.709 9.28467 123.179 9.28467C123.683 9.28467 124.044 9.37707 124.263 9.56187C124.481 9.72987 124.59 10.0155 124.59 10.4187V10.8219C124.59 11.2587 124.473 11.5611 124.238 11.7291C124.019 11.8971 123.658 11.9811 123.154 11.9811Z" fill="url(#paint4_linear_2690_194)"/>
<path d="M110.767 24.9336C110.616 24.6984 110.549 24.4296 110.566 24.1272C110.582 23.808 110.759 23.5392 111.095 23.3208C111.33 23.1696 111.574 23.1108 111.826 23.1444C112.094 23.1612 112.346 23.2872 112.582 23.5224C113.052 24.0432 113.573 24.4548 114.144 24.7572C114.732 25.0596 115.438 25.2108 116.261 25.2108C116.597 25.194 116.941 25.1436 117.294 25.0596C117.647 24.9588 117.949 24.7908 118.201 24.5556C118.453 24.3036 118.579 23.9424 118.579 23.472C118.579 23.052 118.445 22.716 118.176 22.464C117.907 22.212 117.554 22.0104 117.118 21.8592C116.681 21.6912 116.21 21.54 115.706 21.4056C115.169 21.2544 114.623 21.0864 114.068 20.9016C113.531 20.7168 113.044 20.4816 112.607 20.196C112.17 19.8936 111.809 19.5072 111.523 19.0368C111.254 18.5664 111.12 17.9868 111.12 17.298C111.12 16.5084 111.338 15.828 111.775 15.2568C112.229 14.6856 112.808 14.2404 113.514 13.9212C114.236 13.602 115.018 13.4424 115.858 13.4424C116.345 13.4424 116.857 13.5096 117.395 13.644C117.932 13.7616 118.453 13.9548 118.957 14.2236C119.461 14.4924 119.898 14.8452 120.268 15.282C120.436 15.5004 120.528 15.7608 120.545 16.0632C120.578 16.3656 120.444 16.6344 120.142 16.8696C119.94 17.0376 119.696 17.1132 119.411 17.0964C119.125 17.0796 118.89 16.9872 118.705 16.8192C118.386 16.416 117.974 16.1052 117.47 15.8868C116.966 15.6516 116.395 15.534 115.757 15.534C115.438 15.534 115.102 15.5844 114.749 15.6852C114.413 15.7692 114.127 15.9288 113.892 16.164C113.657 16.3992 113.539 16.7436 113.539 17.1972C113.539 17.6172 113.674 17.9532 113.942 18.2052C114.228 18.4572 114.598 18.6672 115.051 18.8352C115.505 19.0032 116 19.1544 116.538 19.2888C117.059 19.4232 117.571 19.5828 118.075 19.7676C118.596 19.9524 119.058 20.196 119.461 20.4984C119.881 20.784 120.217 21.162 120.469 21.6324C120.738 22.086 120.872 22.6656 120.872 23.3712C120.872 24.1944 120.629 24.9 120.142 25.488C119.671 26.0592 119.066 26.496 118.327 26.7984C117.605 27.1008 116.84 27.252 116.034 27.252C115.076 27.252 114.119 27.084 113.161 26.748C112.22 26.3952 111.422 25.7904 110.767 24.9336Z" fill="url(#paint5_linear_2690_194)"/>
<path d="M104.567 27.252C103.173 27.252 101.963 26.9664 100.938 26.3952C99.9137 25.8072 99.1157 25.0092 98.5445 24.0012C97.9901 22.9764 97.7129 21.8088 97.7129 20.4984C97.7129 19.02 98.0069 17.76 98.5949 16.7184C99.1997 15.66 99.9809 14.8536 100.938 14.2992C101.896 13.728 102.912 13.4424 103.988 13.4424C104.811 13.4424 105.592 13.6104 106.331 13.9464C107.07 14.2656 107.726 14.7192 108.297 15.3072C108.885 15.8784 109.347 16.5588 109.683 17.3484C110.019 18.1212 110.195 18.9696 110.212 19.8936C110.195 20.2296 110.061 20.5068 109.809 20.7252C109.557 20.9436 109.263 21.0528 108.927 21.0528H99.1241L98.5193 18.9108H107.994L107.516 19.3644V18.7344C107.482 18.1464 107.289 17.634 106.936 17.1972C106.583 16.7436 106.146 16.3992 105.626 16.164C105.105 15.912 104.559 15.786 103.988 15.786C103.484 15.786 102.996 15.87 102.526 16.038C102.072 16.1892 101.661 16.4412 101.291 16.794C100.938 17.1468 100.653 17.6172 100.434 18.2052C100.233 18.7764 100.132 19.4904 100.132 20.3472C100.132 21.2712 100.325 22.0776 100.712 22.7664C101.098 23.4552 101.619 23.9928 102.274 24.3792C102.929 24.7488 103.652 24.9336 104.441 24.9336C105.063 24.9336 105.575 24.8748 105.978 24.7572C106.382 24.6228 106.718 24.4632 106.986 24.2784C107.255 24.0936 107.49 23.9172 107.692 23.7492C107.944 23.598 108.196 23.5224 108.448 23.5224C108.75 23.5224 109.002 23.6316 109.204 23.85C109.406 24.0516 109.506 24.2952 109.506 24.5808C109.506 24.9504 109.322 25.2864 108.952 25.5888C108.498 26.0256 107.868 26.412 107.062 26.748C106.272 27.084 105.441 27.252 104.567 27.252Z" fill="url(#paint6_linear_2690_194)"/>
<path d="M91.8702 13.4424C93.063 13.4424 93.987 13.6944 94.6422 14.1984C95.2974 14.6856 95.751 15.3492 96.003 16.1892C96.2718 17.0124 96.4062 17.9364 96.4062 18.9612V25.7148C96.4062 26.0844 96.2802 26.3952 96.0282 26.6472C95.793 26.8824 95.499 27 95.1462 27C94.7766 27 94.4742 26.8824 94.239 26.6472C94.0038 26.3952 93.8862 26.0844 93.8862 25.7148V18.9864C93.8862 18.3816 93.8022 17.844 93.6342 17.3736C93.4662 16.8864 93.1722 16.5 92.7522 16.2144C92.349 15.912 91.7778 15.7608 91.0386 15.7608C90.3498 15.7608 89.745 15.912 89.2242 16.2144C88.7034 16.5 88.2918 16.8864 87.9894 17.3736C87.7038 17.844 87.561 18.3816 87.561 18.9864V25.7148C87.561 26.0844 87.435 26.3952 87.183 26.6472C86.9478 26.8824 86.6538 27 86.301 27C85.9314 27 85.629 26.8824 85.3938 26.6472C85.1586 26.3952 85.041 26.0844 85.041 25.7148V15.03C85.041 14.6604 85.1586 14.358 85.3938 14.1228C85.629 13.8708 85.9314 13.7448 86.301 13.7448C86.6538 13.7448 86.9478 13.8708 87.183 14.1228C87.435 14.358 87.561 14.6604 87.561 15.03V16.4412L87.1074 16.6932C87.225 16.3236 87.4266 15.954 87.7122 15.5844C88.0146 15.198 88.3758 14.8452 88.7958 14.526C89.2158 14.19 89.6862 13.9296 90.207 13.7448C90.7278 13.5432 91.2822 13.4424 91.8702 13.4424Z" fill="url(#paint7_linear_2690_194)"/>
<path d="M82.8022 25.7149C82.8022 26.0845 82.6762 26.3952 82.4242 26.6472C82.189 26.8824 81.895 27.0001 81.5422 27.0001C81.1894 27.0001 80.887 26.8824 80.635 26.6472C80.3998 26.3952 80.2822 26.0845 80.2822 25.7149V9.63725C80.2822 9.26765 80.4082 8.96525 80.6602 8.73005C80.9122 8.47805 81.2146 8.35205 81.5674 8.35205C81.937 8.35205 82.231 8.47805 82.4494 8.73005C82.6846 8.96525 82.8022 9.26765 82.8022 9.63725V25.7149Z" fill="url(#paint8_linear_2690_194)"/>
<path d="M76.8023 13.5432C77.1719 13.5432 77.4743 13.6692 77.7095 13.9212C77.9447 14.1564 78.0623 14.4588 78.0623 14.8284V25.7148C78.0623 26.0844 77.9447 26.3952 77.7095 26.6472C77.4743 26.8824 77.1719 27 76.8023 27C76.4495 27 76.1471 26.8824 75.8951 26.6472C75.6599 26.3952 75.5423 26.0844 75.5423 25.7148V23.9004L76.0715 23.976C76.0715 24.2784 75.9455 24.6144 75.6935 24.984C75.4583 25.3536 75.1307 25.7148 74.7107 26.0676C74.2907 26.4036 73.7951 26.6892 73.2239 26.9244C72.6527 27.1428 72.0395 27.252 71.3843 27.252C70.2251 27.252 69.1835 26.958 68.2595 26.37C67.3355 25.7652 66.6047 24.942 66.0671 23.9004C65.5295 22.8588 65.2607 21.6744 65.2607 20.3472C65.2607 18.9864 65.5295 17.7936 66.0671 16.7688C66.6047 15.7272 67.3271 14.9124 68.2343 14.3244C69.1583 13.7364 70.1831 13.4424 71.3087 13.4424C72.0311 13.4424 72.6947 13.56 73.2995 13.7952C73.9211 14.0304 74.4587 14.3328 74.9123 14.7024C75.3659 15.072 75.7103 15.4668 75.9455 15.8868C76.1975 16.29 76.3235 16.6764 76.3235 17.046L75.5423 17.1216V14.8284C75.5423 14.4756 75.6599 14.1732 75.8951 13.9212C76.1471 13.6692 76.4495 13.5432 76.8023 13.5432ZM71.6615 24.9336C72.4511 24.9336 73.1483 24.732 73.7531 24.3288C74.3579 23.9256 74.8283 23.3796 75.1643 22.6908C75.5003 21.9852 75.6683 21.204 75.6683 20.3472C75.6683 19.4736 75.5003 18.6924 75.1643 18.0036C74.8283 17.3148 74.3579 16.7688 73.7531 16.3656C73.1483 15.9624 72.4511 15.7608 71.6615 15.7608C70.8887 15.7608 70.1999 15.9624 69.5951 16.3656C69.0071 16.7688 68.5367 17.3148 68.1839 18.0036C67.8479 18.6924 67.6799 19.4736 67.6799 20.3472C67.6799 21.204 67.8479 21.9852 68.1839 22.6908C68.5367 23.3796 69.0071 23.9256 69.5951 24.3288C70.1999 24.732 70.8887 24.9336 71.6615 24.9336Z" fill="url(#paint9_linear_2690_194)"/>
<path d="M58.8612 27.252C57.4668 27.252 56.2572 26.9664 55.2324 26.3952C54.2076 25.8072 53.4096 25.0092 52.8384 24.0012C52.284 22.9764 52.0068 21.8088 52.0068 20.4984C52.0068 19.02 52.3008 17.76 52.8888 16.7184C53.4936 15.66 54.2748 14.8536 55.2324 14.2992C56.19 13.728 57.2064 13.4424 58.2816 13.4424C59.1048 13.4424 59.886 13.6104 60.6252 13.9464C61.3644 14.2656 62.0196 14.7192 62.5908 15.3072C63.1788 15.8784 63.6408 16.5588 63.9768 17.3484C64.3128 18.1212 64.4892 18.9696 64.506 19.8936C64.4892 20.2296 64.3548 20.5068 64.1028 20.7252C63.8508 20.9436 63.5568 21.0528 63.2208 21.0528H53.418L52.8132 18.9108H62.2884L61.8096 19.3644V18.7344C61.776 18.1464 61.5828 17.634 61.23 17.1972C60.8772 16.7436 60.4404 16.3992 59.9196 16.164C59.3988 15.912 58.8528 15.786 58.2816 15.786C57.7776 15.786 57.2904 15.87 56.82 16.038C56.3664 16.1892 55.9548 16.4412 55.5852 16.794C55.2324 17.1468 54.9468 17.6172 54.7284 18.2052C54.5268 18.7764 54.426 19.4904 54.426 20.3472C54.426 21.2712 54.6192 22.0776 55.0056 22.7664C55.392 23.4552 55.9128 23.9928 56.568 24.3792C57.2232 24.7488 57.9456 24.9336 58.7352 24.9336C59.3568 24.9336 59.8692 24.8748 60.2724 24.7572C60.6756 24.6228 61.0116 24.4632 61.2804 24.2784C61.5492 24.0936 61.7844 23.9172 61.986 23.7492C62.238 23.598 62.49 23.5224 62.742 23.5224C63.0444 23.5224 63.2964 23.6316 63.498 23.85C63.6996 24.0516 63.8004 24.2952 63.8004 24.5808C63.8004 24.9504 63.6156 25.2864 63.246 25.5888C62.7924 26.0256 62.1624 26.412 61.356 26.748C60.5664 27.084 59.7348 27.252 58.8612 27.252Z" fill="url(#paint10_linear_2690_194)"/>
<path d="M43.6752 9.36035C44.9016 9.36035 45.9852 9.59555 46.926 10.066C47.8668 10.5196 48.648 11.158 49.2696 11.9812C49.908 12.7876 50.3868 13.7284 50.706 14.8036C51.0252 15.862 51.1848 16.9876 51.1848 18.1804C51.1848 19.81 50.8992 21.2968 50.328 22.6408C49.7568 23.968 48.9168 25.0264 47.808 25.816C46.6992 26.6056 45.3216 27.0004 43.6752 27.0004H37.5264C37.1736 27.0004 36.8712 26.8828 36.6192 26.6476C36.3672 26.3956 36.2412 26.0848 36.2412 25.7152V10.6456C36.2412 10.276 36.3672 9.97355 36.6192 9.73835C36.8712 9.48635 37.1736 9.36035 37.5264 9.36035H43.6752ZM43.4232 24.5812C44.616 24.5812 45.582 24.2872 46.3212 23.6992C47.0604 23.1112 47.598 22.3384 47.934 21.3808C48.2868 20.4064 48.4632 19.3396 48.4632 18.1804C48.4632 17.3236 48.3624 16.5172 48.1608 15.7612C47.976 14.9884 47.6736 14.308 47.2536 13.72C46.8504 13.1152 46.3296 12.6448 45.6912 12.3088C45.0696 11.956 44.3136 11.7796 43.4232 11.7796H38.6604L38.8872 11.5528V24.8332L38.736 24.5812H43.4232Z" fill="url(#paint11_linear_2690_194)"/>
<line x1="27.5" y1="2.18557e-08" x2="27.5" y2="36" stroke="#448C74"/>
<defs>
<linearGradient id="paint0_linear_2690_194" x1="18.3454" y1="26.6383" x2="14.4257" y2="25.7548" gradientUnits="userSpaceOnUse">
<stop offset="0.469591" stop-color="#438C74"/>
<stop offset="1" stop-color="#1E5744"/>
</linearGradient>
<linearGradient id="paint1_linear_2690_194" x1="17.7405" y1="14.0182" x2="5.55131" y2="16.4953" gradientUnits="userSpaceOnUse">
<stop offset="0.469591" stop-color="#438C74"/>
<stop offset="1" stop-color="#1E5744"/>
</linearGradient>
<linearGradient id="paint2_linear_2690_194" x1="9.81953" y1="13.1537" x2="1.04998" y2="16.9454" gradientUnits="userSpaceOnUse">
<stop offset="0.469591" stop-color="#438C74"/>
<stop offset="1" stop-color="#1E5744"/>
</linearGradient>
<linearGradient id="paint3_linear_2690_194" x1="138.142" y1="-1.35002" x2="118.204" y2="59.1591" gradientUnits="userSpaceOnUse">
<stop offset="0.469591" stop-color="#448C74"/>
<stop offset="1" stop-color="#1B5340"/>
</linearGradient>
<linearGradient id="paint4_linear_2690_194" x1="138.142" y1="-1.34973" x2="118.204" y2="59.1594" gradientUnits="userSpaceOnUse">
<stop offset="0.469591" stop-color="#448C74"/>
<stop offset="1" stop-color="#1B5340"/>
</linearGradient>
<linearGradient id="paint5_linear_2690_194" x1="138.142" y1="-1.35002" x2="118.204" y2="59.1591" gradientUnits="userSpaceOnUse">
<stop offset="0.469591" stop-color="#448C74"/>
<stop offset="1" stop-color="#1B5340"/>
</linearGradient>
<linearGradient id="paint6_linear_2690_194" x1="138.142" y1="-1.35002" x2="118.204" y2="59.1591" gradientUnits="userSpaceOnUse">
<stop offset="0.469591" stop-color="#448C74"/>
<stop offset="1" stop-color="#1B5340"/>
</linearGradient>
<linearGradient id="paint7_linear_2690_194" x1="138.142" y1="-1.35002" x2="118.204" y2="59.1591" gradientUnits="userSpaceOnUse">
<stop offset="0.469591" stop-color="#448C74"/>
<stop offset="1" stop-color="#1B5340"/>
</linearGradient>
<linearGradient id="paint8_linear_2690_194" x1="138.142" y1="-1.34995" x2="118.203" y2="59.1592" gradientUnits="userSpaceOnUse">
<stop offset="0.469591" stop-color="#448C74"/>
<stop offset="1" stop-color="#1B5340"/>
</linearGradient>
<linearGradient id="paint9_linear_2690_194" x1="138.142" y1="-1.35002" x2="118.203" y2="59.1591" gradientUnits="userSpaceOnUse">
<stop offset="0.469591" stop-color="#448C74"/>
<stop offset="1" stop-color="#1B5340"/>
</linearGradient>
<linearGradient id="paint10_linear_2690_194" x1="138.142" y1="-1.35002" x2="118.203" y2="59.1591" gradientUnits="userSpaceOnUse">
<stop offset="0.469591" stop-color="#448C74"/>
<stop offset="1" stop-color="#1B5340"/>
</linearGradient>
<linearGradient id="paint11_linear_2690_194" x1="138.142" y1="-1.34965" x2="118.204" y2="59.1595" gradientUnits="userSpaceOnUse">
<stop offset="0.469591" stop-color="#448C74"/>
<stop offset="1" stop-color="#1B5340"/>
</linearGradient>
<clipPath id="clip0_2690_194">
<rect width="19.8" height="19.8" fill="white" transform="translate(0 8.1001)"/>
</clipPath>
</defs>
</svg>
