<svg width="20" height="20" viewBox="0 0 20 20" fill="none" xmlns="http://www.w3.org/2000/svg">
<path d="M5.54545 4.27273C5.54545 4.97564 4.97564 5.54545 4.27273 5.54545C3.56982 5.54545 3 4.97564 3 4.27273C3 3.56982 3.56982 3 4.27273 3C4.97564 3 5.54545 3.56982 5.54545 4.27273Z" stroke="#888888" stroke-width="0.9"/>
<path d="M5.54545 14.4544C5.54545 15.1573 4.97564 15.7271 4.27273 15.7271C3.56982 15.7271 3 15.1573 3 14.4544C3 13.7514 3.56982 13.1816 4.27273 13.1816C4.97564 13.1816 5.54545 13.7514 5.54545 14.4544Z" stroke="#888888" stroke-width="0.9"/>
<path d="M10.6363 14.4544C10.6363 15.1573 10.0665 15.7271 9.36355 15.7271C8.66062 15.7271 8.09082 15.1573 8.09082 14.4544C8.09082 13.7514 8.66062 13.1816 9.36355 13.1816C10.0665 13.1816 10.6363 13.7514 10.6363 14.4544Z" stroke="#888888" stroke-width="0.9"/>
<path d="M10.6363 4.27273C10.6363 4.97564 10.0665 5.54545 9.36355 5.54545C8.66062 5.54545 8.09082 4.97564 8.09082 4.27273C8.09082 3.56982 8.66062 3 9.36355 3C10.0665 3 10.6363 3.56982 10.6363 4.27273Z" stroke="#888888" stroke-width="0.9"/>
<path d="M15.7271 4.27273C15.7271 4.97564 15.1573 5.54545 14.4544 5.54545C13.7514 5.54545 13.1816 4.97564 13.1816 4.27273C13.1816 3.56982 13.7514 3 14.4544 3C15.1573 3 15.7271 3.56982 15.7271 4.27273Z" stroke="#888888" stroke-width="0.9"/>
<path d="M4.27246 5.54492V13.1813" stroke="#888888" stroke-width="0.9" stroke-linecap="round"/>
<path d="M9.36328 5.54492V13.1813" stroke="#888888" stroke-width="0.9" stroke-linecap="round"/>
<path d="M14.4543 5.54492V5.96916C14.4543 7.56908 14.4543 8.36902 13.9417 8.86606C13.4291 9.3631 12.6042 9.3631 10.9543 9.3631H4.27246" stroke="#888888" stroke-width="0.9" stroke-linecap="round"/>
<path d="M13.1816 11.9092H14.9709C15.3554 11.9092 15.6831 11.9675 15.9541 12.084C16.2251 12.2006 16.4324 12.373 16.576 12.6015C16.7219 12.8276 16.7948 13.1073 16.7948 13.4406C16.7948 13.6947 16.7485 13.9185 16.6559 14.112C16.5632 14.3054 16.4324 14.4686 16.2633 14.6015C16.0942 14.732 15.8927 14.8334 15.6588 14.9057L15.3947 15.0351H13.7862L13.7792 14.3392H14.9848C15.1932 14.3392 15.3669 14.302 15.5059 14.2274C15.6449 14.1528 15.7491 14.0514 15.8186 13.9232C15.8904 13.7926 15.9263 13.6458 15.9263 13.4826C15.9263 13.3054 15.8915 13.1516 15.8221 13.0211C15.7549 12.8882 15.6507 12.7868 15.5094 12.7169C15.3681 12.6446 15.1886 12.6085 14.9709 12.6085H14.0537V17.0001H13.1816V11.9092ZM16.0687 17.0001L14.8805 14.7134L15.7943 14.7099L16.9998 16.9546V17.0001H16.0687Z" fill="#888888" stroke="#888888" stroke-width="0.3"/>
</svg>
