<svg width="20" height="20" viewBox="0 0 20 20" fill="none" xmlns="http://www.w3.org/2000/svg">
<g clip-path="url(#clip0_2113_72)">
<path d="M17.1319 7.97257C16.963 8.04455 16.767 7.96655 16.6943 7.79759L15.7028 5.4822C15.4245 4.92594 14.9895 4.66664 14.3343 4.66664H9.66814C8.85859 4.66664 8.11068 5.09791 7.60441 5.86684L5.61399 8.51254C5.52665 8.6715 5.11573 9.33275 4.33848 9.33275H3.3386C1.90842 9.33275 1.34118 10.1243 1.12019 10.6659H1.67212C1.85643 10.6659 2.0054 10.8152 2.0054 10.9992C2.0054 11.1832 1.85643 11.3325 1.67212 11.3325H0.955527L0.681889 13.0209C0.658884 13.1092 0.666226 13.1786 0.704542 13.2276C0.755551 13.2943 0.865538 13.3322 1.00552 13.3322H2.03208C2.1944 12.2034 3.16561 11.3325 4.33848 11.3325C5.62465 11.3325 6.67152 12.379 6.67152 13.6655C6.67152 14.952 5.62465 15.9985 4.33848 15.9985C3.16561 15.9985 2.1944 15.1276 2.03208 13.9988H1.00552C0.651892 13.9988 0.357592 13.8695 0.176637 13.6348C0.0106417 13.4199 -0.0386886 13.1416 0.030639 12.8833L0.345249 10.9338C0.564871 9.83765 1.46613 8.66612 3.33856 8.66612H4.33844C4.78405 8.66612 5.03136 8.18883 5.033 8.18617C5.04199 8.16719 5.053 8.14919 5.06565 8.13251L7.0594 5.48349C7.67034 4.55462 8.64553 4 9.66807 4H14.3343C15.2448 4 15.9061 4.39827 16.307 5.20185L17.3069 7.53488C17.3796 7.70428 17.3009 7.90027 17.1319 7.97257ZM4.33848 15.332C5.25735 15.332 6.00495 14.5845 6.00495 13.6655C6.00495 12.7467 5.25739 11.9991 4.33848 11.9991C3.4196 11.9991 2.672 12.7466 2.672 13.6655C2.672 14.5845 3.4196 15.332 4.33848 15.332Z" fill="#888888" stroke="#888888" stroke-width="0.3"/>
<path d="M19.0001 13.9985H18.8281C18.6442 13.9985 18.4949 13.8492 18.4949 13.6652C18.4949 13.4813 18.6442 13.332 18.8281 13.332H19.0001C19.1838 13.332 19.3334 13.1823 19.3334 12.9987V11.3322C19.3334 11.3322 19.3334 10.8203 19.3334 10.6656L19.3334 9.66576C19.3334 9.48212 19.1838 9.33248 19.0001 9.33248H12.6076L11.9946 12.3975C11.963 12.5558 11.8236 12.6654 11.668 12.6654C11.6463 12.6654 11.6243 12.6634 11.6023 12.6591C11.4217 12.6228 11.3047 12.4471 11.341 12.2668L11.9277 9.33252H6.33798C6.15367 9.33252 6.0047 9.18321 6.0047 8.99924C6.0047 8.81528 6.15367 8.66596 6.33798 8.66596H7.46519L8.21041 8.66592H12.001V5.66629C12.001 5.48233 12.1503 5.33301 12.3342 5.33301C12.5182 5.33301 12.6675 5.48233 12.6675 5.66629V8.66592H19.0001C19.5514 8.66592 20 9.11454 20 9.6658V12.9987C20 13.5499 19.5514 13.9985 19.0001 13.9985Z" fill="#888888" stroke="#888888" stroke-width="0.3"/>
<path d="M7.33762 13.6651C7.33762 13.4811 7.48659 13.3318 7.6709 13.3318H13.3606C13.5229 12.2029 14.4941 11.332 15.667 11.332C16.9535 11.332 18 12.3786 18 13.6651C18 14.9516 16.9534 15.9981 15.667 15.9981C14.4941 15.9981 13.5229 15.1272 13.3606 13.9983H7.6709C7.48663 13.9983 7.33762 13.8491 7.33762 13.6651ZM15.667 15.3315C16.5858 15.3315 17.3334 14.584 17.3334 13.6651C17.3334 12.7462 16.5859 11.9986 15.667 11.9986C14.7481 11.9986 14.0005 12.7462 14.0005 13.6651C14.0005 14.584 14.7481 15.3315 15.667 15.3315Z" fill="#888888" stroke="#888888" stroke-width="0.3"/>
</g>
<defs>
<clipPath id="clip0_2113_72">
<rect width="20" height="20" fill="white" transform="matrix(-1 0 0 1 20 0)"/>
</clipPath>
</defs>
</svg>
