<svg width="20" height="20" viewBox="0 0 20 20" fill="none" xmlns="http://www.w3.org/2000/svg">
<path d="M18.7 13.2H10.6C10.5094 13.2 10.4239 13.1592 10.3672 13.0887L6.47318 8.28871C6.42157 8.22539 6.39819 8.1438 6.40838 8.06279L6.70837 5.66278C6.72367 5.54128 6.81096 5.44137 6.92919 5.40987C7.0477 5.37745 7.17279 5.42217 7.24598 5.51997L8.14599 6.71996C8.24558 6.85226 8.2189 7.04038 8.08597 7.13966C7.95336 7.23958 7.76528 7.21226 7.66628 7.07997L7.21178 6.47398L7.01947 8.01027L10.7431 12.6H18.3865C18.2344 10.9203 16.8184 9.6 15.1 9.6H11.7265L11.1886 11.4825C11.1508 11.6139 11.0305 11.7 10.9003 11.7C10.8727 11.7 10.8451 11.6961 10.8178 11.6883C10.6581 11.6427 10.5661 11.4768 10.6114 11.3175L11.1048 9.59013C10.4881 9.54091 9.99999 9.0291 9.99999 8.40001C9.99999 7.7382 10.5382 7.20002 11.2 7.20002H16.3C16.7962 7.20002 17.2 7.60351 17.2 8.10003V8.70004C17.2 8.99254 17.0575 9.25023 16.8406 9.41494C17.2402 9.61533 17.6008 9.88083 17.9077 10.2001H18.4C18.5659 10.2001 18.7 10.3341 18.7 10.5C18.7 10.6656 18.5659 10.8 18.4 10.8H18.3811C18.7708 11.4069 19 12.1263 19 12.9C19 13.0656 18.8659 13.2 18.7 13.2ZM16.6 8.09999C16.6 7.9344 16.4656 7.8 16.3 7.8H11.2C10.8694 7.8 10.6 8.06909 10.6 8.40001C10.6 8.73091 10.8694 9.00003 11.2 9.00003H16.3C16.4656 9.00003 16.6 8.86534 16.6 8.70004V8.09999Z" fill="#888888" stroke="#888888" stroke-width="0.3"/>
<path d="M7.24579 4.68013C7.1894 4.75572 7.10028 4.80012 7.00609 4.80012H5.1998C4.91781 4.80012 4.72821 4.64111 4.6148 4.54601C4.6097 4.54182 4.60488 4.53761 4.59979 4.53311V5.67312C4.60938 5.66531 4.6193 5.65723 4.6277 5.6497C4.7441 5.55039 4.92052 5.4001 5.1998 5.4001H5.8061C5.90662 5.4001 6.0002 5.45019 6.05571 5.53358C6.11122 5.61729 6.12142 5.72318 6.08271 5.81557L4.57672 9.41558C4.52993 9.52716 4.42073 9.60008 4.29983 9.60008C3.32962 9.60008 2.42062 10.0252 1.79783 10.7548L7.57429 12.4889C7.42069 11.2622 6.58787 10.2059 5.4062 9.78795C5.2499 9.73276 5.16802 9.56144 5.22321 9.40517C5.27841 9.24918 5.44913 9.16695 5.60571 9.22218C7.1573 9.77059 8.19983 11.2487 8.19983 12.9002C8.19983 12.995 8.15514 13.0841 8.07892 13.1408C8.02643 13.1798 7.96372 13.2002 7.89984 13.2002C7.87073 13.2002 7.84193 13.196 7.81374 13.1876L1.21374 11.2061C1.12255 11.1788 1.05023 11.1101 1.01785 11.021C0.985437 10.9319 0.997144 10.8326 1.04935 10.7534C1.73725 9.71212 2.86556 9.0689 4.09796 9.0053L5.35558 6.00021H5.19987C5.14706 6.00021 5.10358 6.03263 5.01688 6.10642C4.92087 6.18834 4.78977 6.30024 4.59989 6.30024C4.25757 6.30024 3.99988 6.04223 3.99988 5.70022V4.50023C3.99988 4.16934 4.26897 3.90022 4.59989 3.90022C4.77778 3.90022 4.90111 4.00312 5.00008 4.08623C5.08438 4.15672 5.13926 4.20025 5.19987 4.20025H6.85615L7.66615 3.12024C7.76547 2.98763 7.95356 2.96035 8.08585 3.06023C8.21874 3.15955 8.24546 3.34764 8.14586 3.48024L7.24579 4.68013Z" fill="#888888" stroke="#888888" stroke-width="0.3"/>
<path d="M12.8745 13.8412C13.0176 13.7581 13.2012 13.8073 13.2843 13.9504C13.6596 14.5984 14.3559 15.001 15.1011 15.001C15.8463 15.001 16.5426 14.5984 16.9179 13.9504C17.0007 13.8073 17.1843 13.7584 17.3277 13.8412C17.4711 13.9243 17.5203 14.1079 17.4369 14.2513C16.9548 15.0838 16.0596 15.601 15.1011 15.601C14.1426 15.601 13.2474 15.0838 12.7653 14.2513C12.6822 14.1079 12.7311 13.9243 12.8745 13.8412Z" fill="#888888" stroke="#888888" stroke-width="0.3"/>
<path d="M4.30818 15.601C4.09158 15.601 3.87168 15.5746 3.65297 15.5204C2.20847 15.16 1.32647 13.6919 1.68615 12.2473C1.72634 12.0865 1.88834 11.9881 2.05006 12.0286C2.21055 12.0688 2.30835 12.2317 2.26845 12.3922C1.98853 13.5157 2.67464 14.6578 3.79813 14.938C4.83134 15.1957 5.89545 14.6392 6.27075 13.6432C6.32925 13.4881 6.50236 13.4101 6.65715 13.4683C6.81226 13.5265 6.89083 13.6996 6.83205 13.8547C6.42916 14.9251 5.40857 15.601 4.30818 15.601Z" fill="#888888" stroke="#888888" stroke-width="0.3"/>
</svg>
