<svg width="20" height="20" viewBox="0 0 20 20" fill="none" xmlns="http://www.w3.org/2000/svg">
<path d="M14.0999 7.29332C15.3568 8.19136 16.8966 8.71975 18.5597 8.71975V5.52116C18.245 5.52123 17.931 5.48842 17.6231 5.42322V7.94096C15.9602 7.94096 14.4206 7.41258 13.1633 6.5146V13.042C13.1633 16.3073 10.5149 18.9542 7.24807 18.9542C6.02915 18.9542 4.89621 18.5859 3.95508 17.9542C5.02923 19.052 6.52721 19.7329 8.18446 19.7329C11.4515 19.7329 14.1 17.086 14.1 13.8206V7.29332H14.0999ZM15.2553 4.06634C14.6129 3.36491 14.1911 2.45846 14.0999 1.45633V1.04492H13.2123C13.4357 2.31863 14.1978 3.4068 15.2553 4.06634ZM6.02133 15.4485C5.66244 14.9782 5.46849 14.4028 5.46936 13.8112C5.46936 12.3178 6.68073 11.1069 8.17524 11.1069C8.45376 11.1068 8.73062 11.1494 8.99605 11.2336V7.96354C8.68586 7.92105 8.37279 7.90302 8.05986 7.90963V10.4549C7.79423 10.3707 7.51724 10.328 7.23865 10.3282C5.74414 10.3282 4.53284 11.539 4.53284 13.0326C4.53284 14.0888 5.13832 15.0031 6.02133 15.4485Z" fill="#FF004F"/>
<path d="M13.1637 6.51454C14.4209 7.41251 15.9605 7.9409 17.6235 7.9409V5.42315C16.6952 5.22553 15.8735 4.7407 15.2556 4.06634C14.1981 3.40674 13.4361 2.31856 13.2127 1.04492H10.8814V13.8204C10.8761 15.3098 9.66677 16.5158 8.17547 16.5158C7.29667 16.5158 6.51595 16.0971 6.0215 15.4485C5.13856 15.0031 4.53307 14.0887 4.53307 13.0327C4.53307 11.5392 5.74438 10.3283 7.23888 10.3283C7.52522 10.3283 7.80121 10.3729 8.06009 10.455V7.9097C4.85068 7.97597 2.26953 10.597 2.26953 13.8205C2.26953 15.4297 2.9123 16.8884 3.95551 17.9543C4.89664 18.5859 6.02958 18.9543 7.2485 18.9543C10.5154 18.9543 13.1637 16.3073 13.1637 13.042V6.51454H13.1637Z" fill="black"/>
<path d="M17.6235 5.42348V4.74271C16.7864 4.74398 15.9658 4.50968 15.2556 4.0666C15.8843 4.75453 16.7121 5.22887 17.6235 5.42348ZM13.2127 1.04525C13.1914 0.92353 13.175 0.801003 13.1637 0.678008V0.266602H9.94469V13.0423C9.93955 14.5314 8.73031 15.7374 7.23888 15.7374C6.80102 15.7374 6.38761 15.6335 6.0215 15.4489C6.51595 16.0974 7.29667 16.516 8.17547 16.516C9.66664 16.516 10.8761 15.3102 10.8813 13.8208V1.04525H13.2127ZM8.06023 7.91003V7.18529C7.79125 7.14855 7.52008 7.13011 7.24857 7.13024C3.98143 7.13018 1.33301 9.7772 1.33301 13.0423C1.33301 15.0893 2.37388 16.8933 3.95558 17.9545C2.91236 16.8887 2.2696 15.4299 2.2696 13.8208C2.2696 10.5973 4.85068 7.9763 8.06023 7.91003Z" fill="#00F2EA"/>
</svg>
